<?xml version="1.0" encoding="utf-8" ?>
<svg baseProfile="tiny" height="100%" version="1.2" width="100%" xmlns="http://www.w3.org/2000/svg" xmlns:ev="http://www.w3.org/2001/xml-events" xmlns:xlink="http://www.w3.org/1999/xlink"><defs /><path d="M 743,433 L 742,433 L 741,433 L 740,433 L 739,433 L 738,433 L 737,433 L 736,433 L 735,433 L 734,433 L 733,433 L 732,433 L 731,433 L 730,433 L 729,433 L 728,433 L 727,433 L 726,433 L 725,433 L 725,432 L 724,432 L 723,432 L 722,432 L 721,432 L 721,431 L 720,431 L 719,431 L 718,431 L 718,430 L 717,430 L 716,430 L 716,429 L 715,429 L 714,429 L 713,429 L 713,428 L 712,428 L 712,427 L 711,427 L 710,427 L 710,426 L 709,426 L 708,426 L 708,425 L 707,425 L 707,424 L 706,424 L 705,424 L 705,423 L 704,423 L 704,422 L 703,422 L 703,421 L 702,421 L 702,420 L 701,420 L 701,419 L 700,419 L 700,418 L 699,418 L 699,417 L 699,416 L 698,416 L 698,415 L 697,415 L 697,414 L 696,414 L 696,413 L 696,412 L 695,412 L 695,411 L 694,411 L 694,410 L 694,409 L 693,409 L 693,408 L 693,407 L 692,407 L 692,406 L 692,405 L 692,404 L 691,404 L 691,403 L 691,402 L 690,402 L 690,401 L 690,400 L 690,399 L 689,399 L 689,398 L 689,397 L 689,396 L 689,395 L 689,394 L 688,394 L 688,393 L 689,392 L 689,392 L 689,391 L 688,391 L 688,390 L 688,389 L 688,388 L 688,387 L 688,386 L 688,385 L 688,384 L 688,383 L 688,382 L 688,381 L 689,380 L 689,380 L 689,379 L 689,378 L 689,377 L 689,376 L 689,375 L 690,374 L 690,374 L 690,373 L 690,372 L 690,371 L 691,370 L 691,370 L 691,369 L 692,368 L 692,368 L 692,367 L 692,366 L 693,365 L 693,365 L 693,364 L 694,363 L 694,363 L 694,362 L 695,361 L 695,361 L 696,360 L 696,360 L 696,359 L 697,358 L 697,358 L 698,357 L 698,357 L 699,356 L 699,356 L 699,355 L 700,354 L 700,354 L 701,353 L 701,353 L 702,352 L 702,352 L 703,351 L 703,351 L 704,350 L 705,350 L 705,350 L 706,349 L 706,349 L 707,348 L 707,348 L 708,347 L 708,347 L 709,346 L 710,346 L 710,346 L 711,345 L 712,345 L 712,345 L 713,344 L 714,344 L 714,344 L 715,343 L 716,343 L 716,343 L 717,342 L 718,342 L 718,342 L 719,341 L 720,341 L 721,341 L 722,341 L 722,341 L 723,340 L 724,340 L 725,340 L 726,340 L 726,340 L 727,339 L 728,339 L 729,339 L 730,339 L 731,339 L 732,339 L 733,339 L 734,339 L 735,339 L 736,339 L 737,339 L 738,339 L 739,339 L 740,339 L 741,339 L 742,339 L 742,340 L 743,340 L 744,340 L 745,340 L 746,340 L 747,340 L 747,341 L 748,341 L 749,341 L 750,341 L 750,342 L 751,342 L 752,342 L 753,342 L 753,343 L 754,343 L 755,343 L 755,344 L 756,344 L 757,344 L 757,345 L 758,345 L 759,345 L 759,346 L 760,346 L 760,347 L 761,347 L 762,347 L 762,348 L 763,348 L 763,349 L 764,349 L 764,350 L 765,350 L 765,351 L 766,351 L 766,352 L 767,352 L 768,352 L 768,353 L 769,353 L 769,354 L 769,355 L 770,355 L 770,356 L 771,356 L 771,357 L 772,357 L 772,358 L 772,359 L 773,359 L 773,360 L 774,360 L 774,361 L 775,361 L 775,362 L 775,363 L 776,363 L 776,364 L 776,365 L 777,365 L 777,366 L 777,367 L 778,367 L 778,368 L 778,369 L 778,370 L 779,370 L 779,371 L 779,372 L 779,373 L 780,373 L 780,374 L 780,375 L 780,376 L 780,377 L 781,377 L 781,378 L 781,379 L 781,380 L 781,381 L 781,382 L 781,383 L 781,384 L 781,385 L 781,386 L 781,387 L 781,388 L 781,389 L 781,390 L 781,391 L 781,392 L 781,393 L 781,394 L 781,394 L 780,395 L 780,396 L 780,397 L 780,398 L 780,399 L 780,399 L 779,400 L 779,401 L 779,402 L 779,402 L 778,403 L 778,404 L 778,405 L 778,405 L 777,406 L 777,407 L 777,407 L 776,408 L 776,409 L 776,409 L 775,410 L 775,411 L 775,411 L 774,412 L 774,412 L 773,413 L 773,414 L 773,414 L 772,415 L 772,415 L 771,416 L 771,417 L 771,417 L 770,418 L 770,418 L 769,419 L 769,419 L 768,420 L 768,420 L 767,421 L 767,421 L 766,422 L 766,422 L 765,423 L 765,423 L 764,423 L 763,424 L 763,424 L 762,425 L 762,425 L 761,426 L 761,426 L 760,426 L 759,427 L 759,427 L 758,427 L 757,428 L 757,428 L 756,428 L 755,429 L 755,429 L 754,429 L 753,430 L 753,430 L 752,430 L 751,431 L 751,431 L 750,431 L 749,431 L 748,432 L 748,432 L 747,432 L 746,432 L 745,432 L 744,432 L 743,433 L 743,433 Z" fill="black" stroke="none" /><path d="M 859,473 L 858,473 L 857,473 L 857,472 L 856,472 L 855,472 L 854,472 L 854,471 L 853,471 L 853,470 L 853,469 L 852,469 L 852,468 L 852,467 L 852,466 L 852,465 L 852,464 L 852,463 L 853,462 L 853,462 L 854,461 L 854,461 L 854,460 L 855,459 L 855,459 L 855,458 L 856,457 L 856,457 L 856,456 L 857,455 L 857,455 L 857,454 L 857,453 L 858,452 L 858,452 L 858,451 L 859,450 L 859,450 L 859,449 L 859,448 L 860,447 L 860,447 L 860,446 L 860,445 L 860,444 L 861,443 L 861,443 L 861,442 L 861,441 L 861,440 L 862,439 L 862,439 L 862,438 L 862,437 L 862,436 L 862,435 L 862,434 L 863,433 L 863,433 L 863,432 L 863,431 L 863,430 L 863,429 L 863,428 L 863,427 L 863,426 L 863,425 L 863,424 L 863,423 L 863,422 L 863,421 L 863,420 L 863,419 L 863,418 L 863,417 L 863,416 L 862,416 L 862,415 L 862,414 L 862,413 L 862,412 L 862,411 L 862,410 L 861,410 L 861,409 L 861,408 L 861,407 L 861,406 L 861,405 L 860,405 L 860,404 L 860,403 L 860,402 L 859,402 L 859,401 L 859,400 L 859,399 L 858,399 L 858,398 L 858,397 L 857,397 L 857,396 L 857,395 L 856,395 L 856,394 L 856,393 L 855,393 L 855,392 L 855,391 L 854,391 L 854,390 L 854,389 L 853,389 L 853,388 L 853,387 L 852,387 L 852,386 L 851,386 L 851,385 L 851,384 L 850,384 L 850,383 L 849,383 L 849,382 L 848,382 L 848,381 L 847,381 L 847,380 L 847,379 L 846,379 L 846,378 L 845,378 L 845,377 L 844,377 L 843,377 L 843,376 L 842,376 L 842,375 L 841,375 L 841,374 L 840,374 L 840,373 L 839,373 L 839,372 L 838,372 L 838,371 L 837,371 L 836,371 L 836,370 L 835,370 L 835,369 L 834,369 L 834,368 L 833,368 L 833,367 L 833,366 L 833,365 L 833,364 L 833,363 L 833,362 L 834,361 L 834,361 L 834,360 L 835,359 L 836,359 L 836,359 L 837,358 L 838,358 L 839,358 L 840,358 L 841,358 L 841,359 L 842,359 L 843,359 L 843,360 L 844,360 L 844,361 L 845,361 L 846,361 L 846,362 L 847,362 L 847,363 L 848,363 L 848,364 L 849,364 L 850,364 L 850,365 L 851,365 L 851,366 L 852,366 L 852,367 L 853,367 L 853,368 L 854,368 L 854,369 L 855,369 L 855,370 L 856,370 L 856,371 L 857,371 L 857,372 L 858,372 L 858,373 L 859,373 L 859,374 L 859,375 L 860,375 L 860,376 L 861,376 L 861,377 L 862,377 L 862,378 L 862,379 L 863,379 L 863,380 L 864,380 L 864,381 L 864,382 L 865,382 L 865,383 L 865,384 L 866,384 L 866,385 L 866,386 L 867,386 L 867,387 L 867,388 L 868,388 L 868,389 L 868,390 L 869,390 L 869,391 L 869,392 L 870,392 L 870,393 L 870,394 L 870,395 L 871,395 L 871,396 L 871,397 L 871,398 L 872,398 L 872,399 L 872,400 L 872,401 L 872,402 L 873,402 L 873,403 L 873,404 L 873,405 L 873,406 L 874,406 L 874,407 L 874,408 L 874,409 L 874,410 L 874,411 L 874,412 L 875,412 L 875,413 L 875,414 L 875,415 L 875,416 L 875,417 L 875,418 L 875,419 L 875,420 L 875,421 L 875,422 L 875,423 L 875,424 L 875,425 L 875,426 L 875,427 L 875,428 L 875,429 L 875,430 L 875,431 L 875,432 L 875,433 L 875,434 L 875,435 L 875,436 L 875,437 L 875,437 L 874,438 L 874,439 L 874,440 L 874,441 L 874,442 L 874,443 L 874,443 L 873,444 L 873,445 L 873,446 L 873,447 L 873,447 L 872,448 L 872,449 L 872,450 L 872,450 L 871,451 L 871,452 L 871,453 L 871,453 L 870,454 L 870,455 L 870,456 L 870,456 L 869,457 L 869,458 L 869,458 L 868,459 L 868,460 L 868,461 L 868,461 L 867,462 L 867,463 L 867,463 L 866,464 L 866,465 L 866,465 L 865,466 L 865,467 L 865,467 L 864,468 L 864,469 L 864,469 L 863,470 L 863,470 L 862,471 L 862,471 L 861,472 L 861,472 L 860,472 L 859,473 L 859,473 Z" fill="black" stroke="none" /><path d="M 839,458 L 838,458 L 837,458 L 836,458 L 835,458 L 834,458 L 834,457 L 833,457 L 832,457 L 832,456 L 831,456 L 831,455 L 830,455 L 830,454 L 830,453 L 830,452 L 830,451 L 830,450 L 831,449 L 831,449 L 831,448 L 832,447 L 832,447 L 832,446 L 833,445 L 833,445 L 833,444 L 834,443 L 834,443 L 834,442 L 834,441 L 835,440 L 835,440 L 835,439 L 835,438 L 836,437 L 836,437 L 836,436 L 836,435 L 836,434 L 836,433 L 836,432 L 837,431 L 837,431 L 837,430 L 837,429 L 837,428 L 837,427 L 837,426 L 837,425 L 837,424 L 837,423 L 837,422 L 837,421 L 837,420 L 836,420 L 836,419 L 836,418 L 836,417 L 836,416 L 836,415 L 836,414 L 835,414 L 835,413 L 835,412 L 835,411 L 834,411 L 834,410 L 834,409 L 833,409 L 833,408 L 833,407 L 832,407 L 832,406 L 832,405 L 831,405 L 831,404 L 831,403 L 830,403 L 830,402 L 829,402 L 829,401 L 829,400 L 828,400 L 828,399 L 827,399 L 827,398 L 826,398 L 826,397 L 825,397 L 825,396 L 824,396 L 824,395 L 823,395 L 823,394 L 822,394 L 822,393 L 821,393 L 821,392 L 820,392 L 819,392 L 819,391 L 818,391 L 818,390 L 817,390 L 817,389 L 817,388 L 816,388 L 816,387 L 816,386 L 816,385 L 816,384 L 817,383 L 817,383 L 818,382 L 818,382 L 819,381 L 819,381 L 820,380 L 821,380 L 821,380 L 822,379 L 823,379 L 824,379 L 824,380 L 825,380 L 826,380 L 826,381 L 827,381 L 828,381 L 828,382 L 829,382 L 829,383 L 830,383 L 830,384 L 831,384 L 831,385 L 832,385 L 833,385 L 833,386 L 834,386 L 834,387 L 835,387 L 835,388 L 836,388 L 836,389 L 837,389 L 837,390 L 837,391 L 838,391 L 838,392 L 839,392 L 839,393 L 840,393 L 840,394 L 841,394 L 841,395 L 841,396 L 842,396 L 842,397 L 842,398 L 843,398 L 843,399 L 843,400 L 844,400 L 844,401 L 844,402 L 845,402 L 845,403 L 845,404 L 846,404 L 846,405 L 846,406 L 846,407 L 847,407 L 847,408 L 847,409 L 847,410 L 848,410 L 848,411 L 848,412 L 848,413 L 848,414 L 848,415 L 849,415 L 849,416 L 849,417 L 849,418 L 849,419 L 849,420 L 849,421 L 849,422 L 849,423 L 849,424 L 849,425 L 849,426 L 849,427 L 849,428 L 849,429 L 849,430 L 849,431 L 849,432 L 849,433 L 849,434 L 849,434 L 848,435 L 848,436 L 848,437 L 848,438 L 848,439 L 848,439 L 847,440 L 847,441 L 847,442 L 847,443 L 847,443 L 846,444 L 846,445 L 846,446 L 846,446 L 845,447 L 845,448 L 845,448 L 844,449 L 844,450 L 844,451 L 844,451 L 843,452 L 843,453 L 843,453 L 842,454 L 842,455 L 842,455 L 841,456 L 841,456 L 840,457 L 840,457 L 839,458 L 839,458 Z" fill="black" stroke="none" /><path d="M 818,444 L 817,444 L 816,444 L 815,444 L 814,444 L 813,444 L 812,444 L 811,444 L 811,443 L 810,443 L 810,442 L 809,442 L 809,441 L 808,441 L 808,440 L 808,439 L 808,438 L 808,437 L 808,436 L 808,435 L 809,434 L 809,434 L 809,433 L 810,432 L 810,432 L 810,431 L 810,430 L 810,429 L 810,428 L 810,427 L 810,426 L 810,425 L 810,424 L 810,423 L 810,422 L 809,422 L 809,421 L 809,420 L 809,419 L 808,419 L 808,418 L 807,418 L 807,417 L 807,416 L 806,416 L 806,415 L 805,415 L 805,414 L 804,414 L 804,413 L 803,413 L 803,412 L 802,412 L 802,411 L 801,411 L 801,410 L 801,409 L 801,408 L 800,408 L 801,407 L 801,407 L 801,406 L 801,405 L 802,404 L 802,404 L 803,403 L 803,403 L 804,402 L 804,402 L 805,401 L 806,401 L 807,401 L 808,401 L 809,401 L 810,401 L 810,402 L 811,402 L 812,402 L 812,403 L 813,403 L 813,404 L 814,404 L 814,405 L 815,405 L 815,406 L 816,406 L 816,407 L 816,408 L 817,408 L 817,409 L 818,409 L 818,410 L 819,410 L 819,411 L 819,412 L 820,412 L 820,413 L 820,414 L 821,414 L 821,415 L 821,416 L 822,416 L 822,417 L 822,418 L 822,419 L 823,419 L 823,420 L 823,421 L 823,422 L 823,423 L 823,424 L 823,425 L 823,426 L 823,427 L 823,428 L 823,429 L 823,430 L 823,431 L 823,432 L 823,432 L 822,433 L 822,434 L 822,435 L 822,436 L 822,436 L 821,437 L 821,438 L 821,439 L 821,440 L 821,440 L 820,441 L 820,442 L 820,442 L 819,443 L 819,443 L 818,444 L 818,444 Z" fill="black" stroke="none" /><path d="M 810,535 L 809,535 L 808,535 L 807,535 L 806,535 L 805,535 L 804,535 L 803,535 L 802,535 L 801,535 L 800,535 L 799,535 L 798,535 L 797,535 L 796,535 L 795,535 L 794,535 L 793,535 L 792,535 L 791,535 L 790,535 L 789,535 L 788,535 L 787,535 L 786,535 L 786,534 L 786,533 L 786,532 L 786,531 L 786,530 L 786,529 L 786,528 L 786,527 L 786,526 L 786,525 L 786,524 L 786,523 L 786,522 L 786,521 L 787,520 L 787,520 L 787,519 L 787,518 L 787,517 L 788,516 L 788,516 L 789,515 L 789,515 L 790,514 L 790,514 L 791,513 L 792,513 L 792,513 L 793,512 L 794,512 L 794,512 L 795,511 L 796,511 L 796,511 L 797,510 L 797,510 L 798,509 L 798,509 L 799,508 L 799,508 L 799,507 L 800,506 L 800,506 L 800,505 L 801,504 L 801,504 L 801,503 L 802,502 L 802,502 L 802,501 L 802,500 L 802,499 L 802,498 L 802,497 L 802,496 L 802,495 L 802,494 L 802,493 L 802,492 L 802,491 L 802,490 L 802,489 L 802,488 L 802,487 L 802,486 L 802,485 L 802,484 L 802,483 L 801,483 L 801,482 L 801,481 L 801,480 L 800,480 L 800,479 L 799,479 L 799,478 L 799,477 L 798,477 L 798,476 L 797,476 L 797,475 L 796,475 L 796,474 L 795,474 L 794,474 L 794,473 L 793,473 L 793,472 L 792,472 L 791,472 L 791,471 L 790,471 L 789,471 L 788,471 L 787,471 L 786,471 L 786,470 L 785,470 L 784,471 L 784,471 L 783,471 L 782,471 L 781,471 L 781,470 L 780,471 L 780,471 L 779,471 L 778,471 L 777,471 L 776,471 L 775,471 L 774,472 L 774,472 L 773,472 L 772,473 L 772,473 L 771,474 L 771,474 L 770,475 L 770,475 L 769,476 L 769,476 L 768,477 L 768,477 L 767,478 L 767,478 L 766,479 L 766,479 L 765,480 L 765,481 L 765,482 L 765,482 L 764,483 L 764,484 L 764,485 L 764,485 L 763,486 L 763,487 L 763,488 L 763,489 L 763,490 L 763,491 L 763,492 L 763,493 L 763,494 L 763,495 L 763,496 L 763,497 L 763,498 L 763,499 L 764,499 L 764,500 L 764,501 L 764,502 L 764,503 L 764,504 L 765,504 L 765,505 L 765,506 L 766,506 L 766,507 L 766,508 L 767,508 L 767,509 L 768,509 L 768,510 L 769,510 L 769,511 L 770,511 L 771,511 L 771,512 L 772,512 L 773,512 L 773,513 L 774,513 L 775,513 L 775,514 L 776,514 L 776,515 L 776,516 L 777,516 L 777,517 L 777,518 L 778,518 L 778,519 L 778,520 L 778,521 L 778,522 L 779,522 L 779,523 L 779,524 L 779,525 L 779,526 L 779,527 L 779,528 L 779,529 L 779,530 L 779,531 L 779,531 L 778,532 L 778,533 L 778,534 L 778,535 L 778,535 L 777,535 L 776,535 L 775,535 L 774,535 L 773,535 L 772,535 L 771,535 L 770,535 L 769,535 L 768,535 L 767,535 L 766,535 L 765,535 L 764,535 L 763,535 L 762,535 L 761,535 L 760,535 L 759,535 L 758,535 L 757,535 L 756,535 L 755,535 L 754,535 L 753,535 L 752,535 L 751,535 L 750,535 L 749,535 L 748,535 L 747,535 L 746,535 L 745,535 L 744,535 L 743,535 L 742,535 L 741,535 L 740,535 L 739,535 L 738,535 L 737,535 L 736,535 L 735,535 L 734,535 L 733,535 L 732,535 L 731,535 L 730,535 L 729,535 L 728,535 L 727,535 L 726,535 L 725,535 L 724,535 L 723,535 L 722,535 L 721,535 L 720,535 L 719,535 L 718,535 L 717,535 L 716,535 L 715,535 L 714,535 L 713,535 L 712,535 L 711,535 L 710,535 L 709,535 L 708,535 L 707,535 L 706,535 L 705,535 L 704,535 L 703,535 L 702,535 L 701,535 L 700,535 L 699,535 L 698,535 L 697,535 L 696,535 L 695,535 L 694,535 L 693,535 L 692,535 L 691,535 L 690,535 L 689,535 L 688,535 L 687,535 L 686,535 L 685,535 L 684,535 L 685,534 L 685,534 L 685,533 L 685,532 L 685,531 L 685,530 L 685,529 L 685,528 L 685,527 L 685,526 L 685,525 L 685,524 L 685,523 L 685,522 L 685,521 L 685,520 L 685,519 L 685,518 L 685,517 L 685,516 L 684,516 L 684,515 L 684,514 L 684,513 L 683,513 L 683,512 L 683,511 L 683,510 L 682,510 L 682,509 L 681,509 L 681,508 L 681,507 L 680,507 L 680,506 L 679,506 L 679,505 L 678,505 L 678,504 L 677,504 L 676,504 L 676,503 L 675,503 L 675,502 L 674,502 L 673,502 L 673,501 L 672,501 L 671,501 L 671,500 L 670,500 L 669,500 L 668,500 L 668,499 L 667,499 L 666,499 L 665,499 L 665,498 L 664,498 L 663,498 L 662,498 L 661,498 L 660,498 L 659,498 L 659,497 L 659,496 L 659,495 L 659,494 L 659,493 L 658,493 L 658,492 L 658,491 L 658,490 L 658,489 L 658,488 L 658,487 L 658,486 L 658,485 L 658,484 L 658,483 L 658,482 L 658,481 L 659,480 L 659,480 L 659,479 L 659,478 L 659,477 L 659,476 L 659,475 L 660,474 L 660,474 L 660,473 L 660,472 L 661,471 L 661,471 L 661,470 L 662,469 L 662,469 L 662,468 L 662,467 L 663,466 L 663,466 L 664,465 L 664,465 L 664,464 L 665,463 L 665,463 L 665,462 L 666,461 L 666,461 L 667,460 L 667,460 L 668,459 L 668,459 L 669,458 L 669,458 L 670,457 L 670,457 L 671,456 L 671,456 L 672,455 L 672,455 L 673,454 L 673,454 L 674,453 L 674,453 L 675,452 L 675,452 L 676,451 L 677,451 L 677,451 L 678,450 L 678,450 L 679,449 L 680,449 L 680,449 L 681,448 L 682,448 L 682,448 L 683,447 L 684,447 L 684,447 L 685,446 L 686,446 L 686,446 L 687,445 L 688,445 L 689,445 L 689,445 L 690,444 L 691,444 L 691,444 L 692,443 L 693,443 L 693,443 L 694,442 L 695,442 L 696,442 L 696,442 L 697,441 L 698,441 L 698,441 L 699,440 L 700,440 L 701,440 L 701,440 L 702,439 L 703,439 L 703,440 L 703,441 L 704,441 L 704,442 L 704,443 L 705,443 L 705,444 L 705,445 L 706,445 L 706,446 L 706,447 L 707,447 L 707,448 L 707,449 L 707,450 L 708,450 L 708,451 L 708,452 L 709,452 L 709,453 L 709,454 L 710,454 L 710,455 L 710,456 L 711,456 L 711,457 L 711,458 L 712,458 L 712,459 L 712,460 L 713,460 L 713,461 L 713,462 L 714,462 L 714,463 L 714,464 L 715,464 L 715,465 L 715,466 L 716,466 L 716,467 L 716,468 L 716,469 L 717,469 L 717,470 L 717,471 L 718,471 L 718,472 L 718,473 L 719,473 L 719,474 L 719,475 L 720,475 L 720,476 L 720,477 L 721,477 L 721,478 L 721,479 L 721,480 L 722,480 L 722,481 L 722,482 L 723,482 L 723,483 L 724,483 L 725,483 L 725,483 L 725,482 L 724,482 L 725,481 L 725,481 L 725,480 L 725,479 L 725,478 L 726,477 L 726,477 L 726,476 L 726,475 L 726,474 L 727,473 L 727,473 L 727,472 L 727,471 L 727,470 L 727,469 L 728,468 L 728,468 L 728,467 L 727,467 L 728,466 L 728,466 L 728,465 L 729,464 L 729,464 L 730,463 L 731,463 L 732,463 L 733,463 L 734,463 L 735,463 L 736,463 L 737,463 L 738,463 L 739,463 L 740,463 L 741,463 L 742,463 L 742,464 L 742,465 L 742,466 L 742,467 L 743,467 L 743,468 L 743,469 L 743,470 L 743,471 L 743,472 L 743,473 L 743,474 L 743,475 L 744,475 L 744,476 L 744,477 L 744,478 L 744,479 L 745,479 L 745,480 L 745,481 L 745,482 L 745,483 L 746,483 L 747,483 L 747,483 L 747,482 L 748,481 L 748,481 L 748,480 L 749,479 L 749,479 L 749,478 L 749,477 L 750,476 L 750,476 L 750,475 L 751,474 L 751,474 L 751,473 L 752,472 L 752,472 L 752,471 L 753,470 L 753,470 L 753,469 L 754,468 L 754,468 L 754,467 L 754,466 L 755,465 L 755,465 L 755,464 L 756,463 L 756,463 L 756,462 L 757,461 L 757,461 L 757,460 L 758,459 L 758,459 L 758,458 L 759,457 L 759,457 L 759,456 L 760,455 L 760,455 L 760,454 L 761,453 L 761,453 L 761,452 L 762,451 L 762,451 L 762,450 L 763,449 L 763,449 L 763,448 L 763,447 L 764,446 L 764,446 L 765,445 L 765,445 L 765,444 L 765,443 L 766,442 L 766,442 L 766,441 L 767,440 L 767,440 L 768,439 L 769,439 L 769,440 L 770,440 L 771,440 L 771,441 L 772,441 L 773,441 L 774,441 L 774,442 L 775,442 L 776,442 L 776,443 L 777,443 L 778,443 L 779,443 L 779,444 L 780,444 L 781,444 L 781,445 L 782,445 L 783,445 L 783,446 L 784,446 L 785,446 L 786,446 L 786,447 L 787,447 L 788,447 L 788,448 L 789,448 L 790,448 L 790,449 L 791,449 L 792,449 L 792,450 L 793,450 L 794,450 L 794,451 L 795,451 L 795,452 L 796,452 L 796,453 L 797,453 L 797,454 L 798,454 L 799,454 L 799,455 L 799,456 L 800,456 L 800,457 L 801,457 L 801,458 L 802,458 L 802,459 L 803,459 L 803,460 L 804,460 L 804,461 L 805,461 L 805,462 L 805,463 L 806,463 L 806,464 L 807,464 L 807,465 L 807,466 L 808,466 L 808,467 L 808,468 L 809,468 L 809,469 L 809,470 L 810,470 L 810,471 L 810,472 L 810,473 L 811,473 L 811,474 L 811,475 L 811,476 L 811,477 L 812,477 L 812,478 L 812,479 L 812,480 L 812,481 L 812,482 L 813,482 L 813,483 L 813,484 L 813,485 L 813,486 L 813,487 L 813,488 L 813,489 L 813,490 L 813,491 L 813,492 L 813,493 L 813,494 L 813,495 L 813,496 L 813,497 L 813,498 L 813,499 L 813,500 L 813,501 L 813,502 L 813,503 L 813,504 L 813,505 L 813,506 L 813,507 L 813,508 L 813,509 L 813,510 L 813,511 L 813,512 L 814,512 L 814,513 L 814,514 L 814,515 L 814,516 L 814,517 L 814,518 L 814,519 L 814,520 L 814,521 L 814,522 L 814,523 L 814,524 L 814,525 L 814,526 L 814,527 L 814,527 L 813,528 L 813,529 L 813,530 L 813,531 L 813,531 L 812,532 L 812,533 L 812,533 L 811,534 L 811,534 L 810,535 L 810,535 Z" fill="black" stroke="none" /><path d="M 743,457 L 742,457 L 741,457 L 740,457 L 739,457 L 738,457 L 737,457 L 736,457 L 735,457 L 734,457 L 733,457 L 732,457 L 731,457 L 730,457 L 729,457 L 728,457 L 728,456 L 727,456 L 727,455 L 727,454 L 727,453 L 726,453 L 726,452 L 726,451 L 726,450 L 726,449 L 725,449 L 725,448 L 725,447 L 725,446 L 725,445 L 725,444 L 726,443 L 726,443 L 727,442 L 727,442 L 728,441 L 729,441 L 730,441 L 731,441 L 732,441 L 733,441 L 734,441 L 735,441 L 736,441 L 737,441 L 738,441 L 739,441 L 740,441 L 741,441 L 742,441 L 743,441 L 743,442 L 744,442 L 745,442 L 745,443 L 745,444 L 745,445 L 746,445 L 746,446 L 746,447 L 746,447 L 745,448 L 745,449 L 745,450 L 745,450 L 744,451 L 744,452 L 744,453 L 744,454 L 744,454 L 743,455 L 743,456 L 743,457 L 743,457 Z" fill="black" stroke="none" /><path d="M 300,630 L 299,630 L 299,629 L 298,629 L 297,629 L 296,629 L 295,629 L 294,629 L 294,628 L 293,628 L 292,628 L 292,627 L 291,627 L 291,626 L 290,626 L 289,626 L 289,625 L 288,625 L 288,624 L 288,623 L 287,623 L 287,622 L 286,622 L 286,621 L 286,620 L 285,620 L 285,619 L 285,618 L 285,617 L 285,616 L 285,615 L 285,614 L 285,613 L 285,612 L 285,611 L 285,610 L 284,611 L 284,611 L 283,612 L 283,612 L 282,613 L 282,613 L 281,614 L 281,614 L 280,615 L 280,615 L 279,616 L 279,616 L 278,617 L 278,617 L 277,618 L 277,618 L 276,619 L 276,619 L 275,620 L 275,620 L 274,620 L 273,621 L 273,621 L 272,622 L 272,622 L 271,622 L 270,623 L 270,623 L 269,624 L 269,624 L 268,624 L 267,625 L 267,625 L 266,625 L 265,626 L 265,626 L 264,626 L 263,627 L 263,627 L 262,627 L 261,627 L 260,628 L 260,628 L 259,628 L 258,628 L 257,628 L 256,628 L 255,629 L 255,629 L 254,629 L 253,629 L 252,629 L 251,629 L 250,629 L 249,629 L 248,629 L 247,629 L 246,629 L 245,629 L 244,629 L 243,629 L 243,628 L 242,628 L 241,628 L 240,628 L 240,627 L 239,627 L 238,627 L 237,627 L 237,626 L 236,626 L 235,626 L 235,625 L 234,625 L 234,624 L 233,624 L 233,623 L 232,623 L 232,622 L 231,622 L 231,621 L 230,621 L 230,620 L 230,619 L 229,619 L 229,618 L 229,617 L 228,617 L 228,616 L 228,615 L 228,614 L 227,614 L 227,613 L 227,612 L 227,611 L 227,610 L 227,609 L 227,608 L 227,607 L 227,606 L 227,605 L 227,604 L 227,603 L 227,602 L 227,601 L 227,600 L 227,599 L 228,598 L 228,598 L 228,597 L 228,596 L 228,595 L 229,594 L 229,594 L 229,593 L 229,592 L 230,591 L 230,591 L 230,590 L 231,589 L 231,589 L 231,588 L 232,587 L 232,587 L 232,586 L 233,585 L 233,585 L 234,584 L 234,584 L 234,583 L 235,582 L 235,582 L 235,581 L 236,580 L 236,580 L 237,579 L 237,579 L 238,578 L 238,578 L 238,577 L 239,576 L 239,576 L 240,575 L 240,575 L 241,574 L 241,574 L 242,573 L 242,573 L 243,572 L 243,572 L 244,571 L 244,571 L 245,570 L 245,570 L 246,569 L 246,569 L 247,568 L 247,568 L 248,567 L 248,567 L 249,566 L 249,566 L 250,565 L 251,565 L 251,565 L 252,564 L 252,564 L 253,563 L 254,563 L 254,563 L 255,562 L 256,562 L 256,562 L 257,561 L 257,561 L 258,560 L 259,560 L 260,560 L 260,560 L 261,559 L 262,559 L 263,559 L 263,559 L 264,558 L 265,558 L 266,558 L 266,558 L 267,557 L 268,557 L 269,557 L 270,557 L 271,557 L 272,557 L 273,557 L 274,557 L 275,557 L 276,557 L 276,558 L 277,558 L 278,558 L 279,558 L 279,559 L 280,559 L 280,560 L 281,560 L 282,560 L 282,561 L 282,562 L 283,562 L 283,563 L 284,563 L 284,564 L 284,565 L 285,565 L 285,566 L 285,567 L 285,568 L 285,569 L 285,570 L 285,571 L 285,572 L 285,573 L 285,574 L 285,575 L 285,575 L 284,576 L 284,577 L 284,578 L 284,578 L 283,579 L 283,579 L 282,580 L 282,581 L 282,581 L 281,582 L 281,582 L 280,583 L 280,584 L 280,584 L 279,585 L 279,585 L 278,586 L 278,586 L 277,587 L 277,587 L 276,588 L 276,588 L 275,589 L 275,589 L 274,590 L 274,590 L 273,591 L 273,591 L 272,591 L 271,592 L 271,592 L 270,593 L 270,593 L 269,594 L 269,594 L 268,594 L 267,595 L 267,595 L 266,595 L 265,596 L 265,596 L 264,597 L 264,597 L 263,597 L 262,598 L 262,598 L 261,598 L 260,599 L 260,599 L 259,599 L 258,599 L 257,600 L 257,600 L 256,600 L 255,601 L 255,601 L 254,601 L 253,601 L 252,601 L 251,602 L 251,602 L 250,602 L 249,602 L 248,603 L 248,603 L 247,603 L 246,603 L 245,603 L 244,604 L 244,604 L 243,604 L 242,605 L 242,606 L 242,607 L 242,608 L 242,609 L 242,610 L 242,611 L 242,612 L 242,613 L 243,613 L 243,614 L 243,615 L 244,615 L 244,616 L 245,616 L 245,617 L 246,617 L 246,618 L 247,618 L 248,618 L 249,618 L 249,619 L 250,619 L 251,619 L 252,619 L 253,619 L 254,619 L 255,619 L 256,619 L 257,619 L 258,619 L 259,619 L 260,619 L 260,619 L 261,618 L 262,618 L 263,618 L 263,618 L 264,617 L 265,617 L 266,617 L 266,617 L 267,616 L 267,616 L 268,615 L 269,615 L 269,615 L 270,614 L 271,614 L 271,614 L 272,613 L 272,613 L 273,612 L 274,612 L 274,612 L 275,611 L 275,611 L 276,610 L 276,610 L 277,609 L 277,609 L 278,608 L 279,608 L 279,608 L 280,607 L 280,607 L 281,606 L 281,606 L 282,605 L 282,605 L 283,604 L 283,604 L 284,603 L 284,603 L 285,602 L 285,602 L 286,601 L 286,601 L 287,600 L 287,600 L 287,599 L 287,598 L 288,597 L 288,597 L 288,596 L 289,595 L 289,595 L 289,594 L 289,593 L 290,592 L 290,592 L 290,591 L 291,590 L 291,590 L 291,589 L 292,588 L 292,588 L 293,587 L 293,587 L 293,586 L 294,585 L 294,585 L 294,584 L 295,583 L 295,583 L 296,582 L 296,582 L 296,581 L 297,580 L 297,580 L 298,579 L 298,579 L 299,578 L 299,578 L 300,577 L 300,577 L 301,576 L 301,576 L 301,575 L 302,574 L 302,574 L 303,573 L 303,573 L 304,572 L 304,572 L 305,571 L 306,571 L 306,571 L 307,570 L 307,570 L 308,569 L 308,569 L 309,568 L 309,568 L 310,567 L 311,567 L 311,567 L 312,566 L 313,566 L 313,566 L 314,565 L 314,565 L 315,564 L 316,564 L 316,564 L 317,563 L 318,563 L 318,563 L 319,562 L 320,562 L 321,562 L 321,562 L 322,561 L 323,561 L 324,561 L 324,561 L 325,560 L 326,560 L 327,560 L 328,560 L 329,560 L 329,560 L 330,559 L 330,560 L 331,560 L 331,560 L 332,559 L 333,559 L 334,559 L 335,559 L 336,559 L 337,559 L 338,559 L 338,560 L 339,560 L 340,560 L 341,560 L 341,561 L 342,561 L 343,561 L 344,561 L 344,562 L 345,562 L 345,563 L 346,563 L 347,563 L 347,564 L 348,564 L 348,565 L 349,565 L 349,566 L 350,566 L 350,567 L 351,567 L 351,568 L 351,569 L 351,570 L 352,570 L 352,571 L 352,572 L 352,573 L 352,574 L 352,575 L 352,576 L 352,577 L 352,578 L 352,578 L 351,579 L 351,580 L 351,580 L 350,581 L 350,581 L 349,582 L 349,582 L 348,582 L 347,583 L 348,583 L 348,584 L 349,584 L 349,585 L 350,585 L 350,586 L 350,587 L 350,588 L 350,588 L 349,589 L 349,590 L 349,590 L 348,591 L 348,592 L 348,592 L 347,593 L 347,594 L 347,594 L 346,595 L 346,596 L 346,596 L 345,597 L 345,598 L 345,599 L 345,599 L 344,600 L 344,601 L 344,601 L 343,602 L 343,603 L 343,604 L 343,604 L 342,605 L 342,606 L 342,607 L 342,608 L 342,608 L 341,609 L 341,610 L 341,611 L 341,612 L 341,613 L 341,614 L 341,615 L 342,615 L 342,616 L 343,616 L 344,616 L 345,616 L 346,616 L 347,616 L 348,616 L 349,616 L 349,616 L 350,615 L 351,615 L 351,615 L 352,614 L 352,614 L 353,613 L 354,613 L 354,613 L 355,612 L 355,612 L 356,611 L 356,611 L 357,610 L 357,610 L 358,609 L 359,609 L 359,609 L 360,608 L 360,608 L 361,607 L 361,607 L 362,606 L 362,606 L 363,605 L 363,605 L 364,604 L 364,604 L 365,603 L 365,603 L 366,602 L 366,602 L 366,601 L 367,600 L 367,600 L 368,599 L 368,599 L 369,598 L 369,598 L 370,597 L 370,597 L 370,596 L 371,595 L 371,595 L 371,594 L 372,593 L 372,593 L 373,592 L 373,592 L 373,591 L 374,590 L 374,590 L 374,589 L 375,588 L 375,588 L 375,587 L 376,586 L 376,586 L 376,585 L 376,584 L 377,583 L 377,583 L 377,582 L 377,581 L 378,580 L 378,580 L 378,579 L 378,578 L 379,577 L 379,577 L 379,576 L 379,575 L 380,574 L 380,574 L 380,573 L 380,572 L 381,571 L 381,571 L 381,570 L 382,569 L 382,569 L 382,568 L 382,567 L 383,566 L 383,566 L 383,565 L 384,564 L 384,564 L 384,563 L 384,562 L 385,561 L 385,561 L 385,560 L 386,559 L 386,559 L 386,558 L 387,557 L 387,557 L 387,556 L 388,555 L 388,555 L 388,554 L 389,553 L 389,553 L 389,552 L 390,551 L 390,551 L 390,550 L 391,549 L 391,549 L 391,548 L 392,547 L 392,547 L 392,546 L 393,545 L 393,545 L 393,544 L 394,543 L 394,543 L 394,542 L 395,541 L 395,541 L 395,540 L 396,539 L 396,539 L 396,538 L 397,537 L 397,537 L 398,536 L 398,536 L 398,535 L 399,534 L 399,534 L 399,533 L 400,532 L 400,532 L 400,531 L 401,530 L 401,530 L 402,529 L 402,529 L 402,528 L 403,527 L 403,527 L 404,526 L 404,526 L 404,525 L 405,524 L 405,524 L 406,523 L 406,523 L 406,522 L 407,521 L 407,521 L 408,520 L 408,520 L 409,519 L 409,519 L 409,518 L 410,517 L 410,517 L 411,516 L 411,516 L 412,515 L 412,515 L 412,514 L 413,513 L 413,513 L 414,512 L 414,512 L 415,511 L 415,511 L 416,510 L 416,510 L 417,509 L 417,509 L 418,508 L 418,508 L 419,507 L 420,507 L 420,507 L 421,506 L 421,506 L 422,505 L 423,505 L 423,505 L 424,504 L 425,504 L 426,504 L 427,504 L 427,504 L 428,503 L 429,503 L 429,504 L 430,504 L 431,504 L 431,505 L 432,505 L 433,505 L 433,506 L 434,506 L 434,507 L 435,507 L 435,508 L 435,509 L 435,510 L 436,510 L 436,511 L 436,512 L 436,513 L 436,514 L 436,515 L 436,516 L 436,517 L 436,518 L 436,519 L 436,520 L 436,521 L 436,522 L 436,523 L 436,523 L 435,524 L 435,525 L 435,526 L 435,527 L 435,527 L 434,528 L 434,529 L 434,529 L 433,530 L 433,531 L 433,532 L 433,532 L 432,533 L 432,534 L 432,534 L 431,535 L 431,535 L 430,536 L 430,537 L 430,537 L 429,538 L 429,538 L 428,539 L 428,540 L 428,540 L 427,541 L 427,541 L 426,542 L 426,543 L 426,543 L 425,544 L 425,544 L 424,545 L 424,545 L 423,546 L 423,547 L 423,547 L 422,548 L 422,548 L 421,549 L 421,549 L 420,550 L 420,550 L 419,551 L 419,551 L 418,552 L 418,552 L 417,553 L 417,553 L 416,554 L 416,554 L 415,555 L 415,555 L 414,556 L 414,556 L 413,557 L 413,557 L 412,558 L 412,558 L 411,558 L 410,559 L 410,559 L 409,560 L 409,560 L 408,561 L 408,561 L 407,561 L 406,562 L 406,562 L 405,563 L 405,563 L 404,564 L 404,564 L 403,564 L 402,565 L 402,565 L 401,566 L 401,566 L 400,567 L 400,567 L 399,567 L 398,568 L 398,568 L 397,569 L 397,569 L 396,570 L 396,570 L 395,571 L 395,571 L 394,572 L 394,573 L 394,574 L 394,574 L 393,575 L 393,576 L 393,577 L 393,578 L 393,578 L 392,579 L 392,580 L 392,581 L 392,582 L 392,582 L 391,583 L 391,584 L 391,585 L 391,586 L 391,587 L 391,587 L 390,588 L 390,589 L 390,590 L 390,591 L 390,592 L 390,592 L 389,593 L 389,594 L 389,595 L 389,596 L 389,597 L 389,597 L 388,598 L 388,599 L 388,600 L 388,601 L 389,601 L 389,601 L 389,600 L 389,599 L 390,598 L 390,598 L 390,597 L 391,596 L 391,596 L 391,595 L 392,594 L 392,594 L 392,593 L 393,592 L 393,592 L 393,591 L 394,590 L 394,590 L 394,589 L 395,588 L 395,588 L 396,587 L 396,587 L 396,586 L 397,585 L 397,585 L 397,584 L 398,583 L 398,583 L 399,582 L 399,582 L 399,581 L 400,580 L 400,580 L 401,579 L 401,579 L 402,578 L 402,578 L 402,577 L 403,576 L 403,576 L 404,575 L 404,575 L 405,574 L 405,574 L 406,573 L 406,573 L 407,572 L 407,572 L 408,571 L 408,571 L 409,570 L 410,570 L 410,570 L 411,569 L 411,569 L 412,568 L 412,568 L 413,567 L 414,567 L 414,567 L 415,566 L 416,566 L 416,566 L 417,565 L 418,565 L 418,565 L 419,564 L 420,564 L 421,564 L 421,564 L 422,563 L 423,563 L 424,563 L 425,563 L 426,563 L 427,563 L 428,563 L 429,563 L 430,563 L 431,563 L 431,564 L 432,564 L 433,564 L 434,564 L 434,565 L 435,565 L 436,565 L 436,566 L 437,566 L 437,567 L 438,567 L 438,568 L 439,568 L 439,569 L 440,569 L 440,570 L 441,570 L 441,571 L 441,572 L 442,572 L 442,573 L 442,574 L 442,575 L 443,575 L 443,576 L 443,577 L 443,578 L 443,579 L 443,580 L 443,581 L 443,582 L 443,583 L 443,583 L 442,584 L 442,585 L 442,586 L 442,586 L 441,587 L 441,587 L 440,588 L 440,589 L 440,589 L 439,590 L 439,590 L 438,591 L 438,591 L 437,592 L 437,592 L 436,593 L 436,593 L 435,593 L 434,594 L 434,594 L 433,595 L 433,595 L 432,595 L 431,596 L 431,596 L 430,596 L 429,597 L 429,597 L 428,597 L 427,597 L 426,598 L 426,598 L 425,598 L 424,599 L 424,599 L 423,599 L 422,599 L 421,599 L 420,600 L 420,601 L 420,602 L 420,603 L 421,603 L 421,604 L 421,605 L 422,605 L 422,606 L 422,607 L 423,607 L 423,608 L 423,609 L 424,609 L 424,610 L 424,611 L 425,611 L 425,612 L 426,612 L 426,613 L 426,614 L 427,614 L 427,615 L 428,615 L 428,616 L 429,616 L 429,617 L 430,617 L 431,617 L 432,617 L 433,617 L 434,617 L 435,617 L 435,617 L 436,616 L 437,616 L 437,616 L 438,615 L 439,615 L 439,615 L 440,614 L 440,614 L 441,613 L 442,613 L 442,613 L 443,612 L 443,612 L 444,611 L 444,611 L 445,610 L 445,610 L 446,609 L 446,609 L 447,608 L 447,608 L 448,607 L 448,607 L 449,606 L 449,606 L 449,605 L 449,604 L 449,603 L 449,602 L 449,601 L 449,600 L 449,599 L 450,598 L 450,598 L 450,597 L 450,596 L 451,595 L 451,595 L 451,594 L 451,593 L 452,592 L 452,592 L 452,591 L 453,590 L 453,590 L 453,589 L 453,588 L 454,587 L 454,587 L 454,586 L 455,585 L 455,585 L 456,584 L 456,584 L 456,583 L 457,582 L 457,582 L 457,581 L 458,580 L 458,580 L 459,579 L 459,579 L 460,578 L 460,578 L 460,577 L 461,576 L 461,576 L 462,575 L 462,575 L 463,574 L 463,574 L 464,573 L 464,573 L 465,572 L 465,572 L 466,571 L 466,571 L 467,570 L 467,570 L 468,569 L 468,569 L 469,568 L 469,568 L 470,567 L 470,567 L 471,566 L 471,566 L 472,565 L 473,565 L 473,565 L 474,564 L 474,564 L 475,563 L 476,563 L 476,563 L 477,562 L 478,562 L 478,562 L 479,561 L 480,561 L 480,561 L 481,560 L 482,560 L 482,560 L 483,559 L 484,559 L 485,559 L 485,559 L 486,558 L 487,558 L 488,558 L 488,558 L 489,557 L 489,558 L 490,558 L 490,558 L 491,557 L 492,557 L 493,557 L 494,557 L 495,557 L 496,557 L 497,557 L 498,557 L 498,558 L 499,558 L 500,558 L 500,559 L 501,559 L 502,559 L 502,560 L 503,560 L 503,561 L 504,561 L 504,562 L 505,562 L 505,563 L 505,564 L 506,564 L 506,565 L 506,566 L 506,567 L 507,567 L 507,568 L 507,569 L 507,570 L 507,571 L 507,572 L 507,573 L 507,574 L 507,574 L 506,575 L 506,576 L 506,577 L 506,577 L 505,578 L 505,579 L 505,579 L 504,580 L 504,580 L 503,581 L 503,582 L 503,582 L 502,583 L 502,583 L 501,584 L 501,584 L 500,585 L 500,586 L 500,586 L 499,587 L 499,587 L 498,588 L 498,588 L 497,589 L 497,589 L 496,589 L 495,590 L 495,590 L 494,591 L 494,591 L 493,592 L 493,592 L 492,592 L 491,593 L 491,593 L 490,594 L 490,594 L 489,594 L 488,595 L 488,595 L 487,596 L 487,596 L 486,596 L 485,597 L 485,597 L 484,597 L 483,598 L 483,598 L 482,598 L 481,599 L 481,599 L 480,599 L 479,599 L 478,600 L 478,600 L 477,600 L 476,601 L 476,601 L 475,601 L 474,601 L 473,602 L 473,602 L 472,602 L 471,602 L 470,602 L 469,603 L 469,603 L 468,603 L 467,603 L 466,603 L 465,604 L 465,604 L 464,605 L 464,606 L 464,607 L 464,608 L 464,609 L 464,610 L 464,611 L 464,612 L 464,613 L 464,614 L 465,614 L 465,615 L 465,616 L 466,616 L 466,617 L 467,617 L 467,618 L 468,618 L 468,619 L 469,619 L 470,619 L 471,619 L 471,620 L 472,620 L 473,620 L 474,620 L 475,620 L 476,620 L 477,620 L 478,620 L 479,620 L 480,620 L 480,620 L 481,619 L 482,619 L 483,619 L 484,619 L 484,619 L 485,618 L 486,618 L 486,618 L 487,617 L 488,617 L 488,617 L 489,616 L 489,616 L 490,615 L 490,615 L 491,614 L 492,614 L 492,614 L 493,613 L 493,613 L 494,612 L 494,612 L 495,611 L 496,611 L 496,611 L 497,610 L 497,610 L 498,609 L 498,609 L 499,608 L 499,608 L 500,607 L 500,607 L 501,606 L 501,606 L 502,605 L 502,605 L 503,604 L 503,604 L 504,603 L 504,603 L 505,602 L 505,602 L 506,601 L 506,601 L 507,600 L 507,600 L 508,599 L 508,599 L 508,598 L 509,597 L 509,597 L 510,596 L 510,596 L 510,595 L 511,594 L 511,594 L 512,593 L 512,593 L 512,592 L 513,591 L 513,591 L 513,590 L 514,589 L 514,589 L 514,588 L 515,587 L 515,587 L 515,586 L 516,585 L 516,585 L 516,584 L 517,583 L 517,583 L 517,582 L 518,581 L 518,581 L 518,580 L 519,579 L 519,579 L 519,578 L 520,577 L 520,577 L 520,576 L 520,575 L 521,574 L 521,574 L 521,573 L 522,572 L 522,572 L 522,571 L 522,570 L 523,569 L 523,569 L 523,568 L 523,567 L 523,566 L 523,565 L 522,565 L 522,564 L 522,563 L 522,562 L 522,561 L 522,560 L 523,559 L 523,559 L 523,558 L 523,557 L 524,556 L 524,556 L 524,555 L 525,554 L 525,554 L 526,553 L 526,553 L 527,552 L 527,552 L 528,551 L 529,551 L 530,551 L 531,551 L 532,551 L 533,551 L 533,552 L 534,552 L 534,553 L 535,553 L 535,554 L 535,555 L 535,556 L 535,557 L 535,557 L 534,558 L 534,559 L 534,560 L 534,561 L 534,562 L 534,563 L 535,563 L 535,564 L 536,564 L 536,565 L 537,565 L 537,566 L 538,566 L 538,567 L 539,567 L 539,568 L 540,568 L 541,568 L 541,569 L 542,569 L 542,570 L 543,570 L 543,571 L 544,571 L 544,572 L 545,572 L 545,573 L 546,573 L 546,574 L 547,574 L 547,575 L 548,575 L 548,576 L 548,577 L 549,577 L 549,578 L 549,579 L 550,579 L 550,580 L 550,581 L 550,582 L 550,583 L 550,584 L 550,585 L 550,586 L 550,587 L 550,588 L 550,589 L 550,589 L 549,590 L 549,591 L 549,591 L 548,592 L 548,593 L 548,594 L 548,594 L 547,595 L 547,596 L 547,596 L 546,597 L 546,598 L 546,598 L 545,599 L 545,600 L 545,601 L 545,601 L 544,602 L 544,603 L 544,604 L 544,604 L 543,605 L 543,606 L 543,607 L 543,607 L 542,608 L 542,609 L 542,610 L 542,611 L 542,612 L 542,613 L 543,613 L 543,614 L 544,614 L 544,615 L 545,615 L 546,615 L 547,615 L 548,615 L 549,615 L 550,615 L 550,615 L 551,614 L 552,614 L 552,614 L 553,613 L 554,613 L 554,613 L 555,612 L 556,612 L 556,612 L 557,611 L 557,611 L 558,610 L 558,610 L 559,609 L 559,609 L 560,608 L 560,608 L 561,607 L 561,607 L 562,606 L 562,606 L 562,605 L 562,604 L 562,603 L 562,602 L 562,601 L 563,600 L 563,600 L 564,599 L 564,599 L 564,598 L 565,597 L 565,597 L 566,596 L 566,596 L 567,595 L 568,595 L 568,595 L 569,594 L 569,594 L 570,593 L 571,593 L 572,593 L 573,593 L 573,593 L 574,592 L 574,592 L 575,591 L 575,591 L 576,590 L 576,590 L 577,589 L 577,589 L 577,588 L 578,587 L 578,587 L 579,586 L 579,586 L 580,585 L 580,585 L 580,584 L 581,583 L 581,583 L 582,582 L 582,582 L 582,581 L 583,580 L 583,580 L 584,579 L 584,579 L 584,578 L 585,577 L 585,577 L 585,576 L 586,575 L 586,575 L 586,574 L 587,573 L 587,573 L 587,572 L 588,571 L 588,571 L 588,570 L 588,569 L 589,568 L 589,568 L 589,567 L 589,566 L 589,565 L 589,564 L 590,563 L 590,563 L 590,562 L 590,561 L 590,560 L 591,559 L 591,559 L 592,558 L 592,558 L 592,557 L 593,556 L 593,556 L 594,555 L 595,555 L 595,555 L 596,554 L 597,554 L 598,554 L 599,554 L 600,554 L 600,555 L 601,555 L 602,555 L 602,556 L 602,557 L 602,558 L 602,559 L 602,560 L 602,561 L 602,562 L 602,563 L 602,564 L 602,565 L 602,566 L 602,567 L 602,568 L 603,568 L 603,569 L 603,570 L 603,571 L 603,572 L 603,573 L 604,573 L 604,574 L 604,575 L 604,576 L 604,577 L 605,577 L 605,578 L 605,579 L 605,580 L 606,580 L 606,581 L 606,582 L 606,583 L 607,583 L 607,584 L 607,585 L 608,585 L 608,586 L 608,587 L 608,588 L 609,588 L 609,589 L 609,590 L 609,591 L 609,592 L 610,592 L 610,593 L 610,594 L 610,595 L 611,595 L 611,596 L 611,597 L 611,598 L 611,599 L 611,600 L 611,601 L 611,602 L 611,603 L 611,604 L 611,605 L 611,606 L 611,606 L 610,607 L 611,607 L 612,607 L 612,607 L 613,606 L 614,606 L 614,606 L 615,605 L 615,605 L 616,604 L 616,604 L 617,603 L 617,603 L 618,602 L 618,602 L 619,601 L 619,601 L 620,600 L 620,600 L 621,599 L 621,599 L 621,598 L 621,597 L 621,596 L 621,595 L 622,594 L 622,594 L 622,593 L 622,592 L 622,591 L 622,590 L 623,589 L 623,589 L 623,588 L 623,587 L 623,586 L 623,585 L 623,584 L 624,583 L 624,583 L 624,582 L 624,581 L 624,580 L 625,579 L 625,579 L 625,578 L 625,577 L 625,576 L 626,575 L 626,575 L 626,574 L 626,573 L 626,572 L 627,571 L 627,571 L 627,570 L 627,569 L 628,568 L 628,568 L 628,567 L 628,566 L 628,565 L 629,564 L 629,564 L 629,563 L 629,562 L 630,561 L 630,561 L 630,560 L 630,559 L 631,558 L 631,558 L 631,557 L 631,556 L 632,555 L 632,555 L 632,554 L 632,553 L 633,552 L 633,552 L 633,551 L 633,550 L 634,549 L 634,549 L 634,548 L 635,547 L 635,547 L 635,546 L 635,545 L 636,544 L 636,544 L 636,543 L 637,542 L 637,542 L 637,541 L 637,540 L 638,539 L 638,539 L 638,538 L 639,537 L 639,537 L 639,536 L 640,535 L 640,535 L 640,534 L 641,533 L 641,533 L 641,532 L 642,531 L 642,531 L 642,530 L 643,529 L 643,529 L 643,528 L 644,527 L 644,527 L 644,526 L 645,525 L 645,525 L 646,524 L 646,524 L 646,523 L 647,522 L 647,522 L 648,521 L 648,521 L 648,520 L 649,519 L 649,519 L 650,518 L 650,518 L 651,517 L 651,517 L 652,516 L 652,516 L 653,515 L 653,515 L 654,514 L 654,514 L 655,513 L 655,513 L 656,512 L 656,512 L 657,511 L 658,511 L 658,511 L 659,510 L 659,510 L 660,509 L 661,509 L 662,509 L 662,509 L 663,508 L 664,508 L 665,508 L 666,508 L 667,508 L 668,508 L 669,508 L 669,509 L 670,509 L 671,509 L 671,510 L 672,510 L 672,511 L 672,512 L 673,512 L 673,513 L 674,513 L 674,514 L 674,515 L 674,516 L 675,516 L 675,517 L 675,518 L 675,519 L 675,520 L 675,521 L 675,522 L 675,523 L 675,524 L 675,525 L 675,526 L 675,527 L 675,528 L 675,528 L 674,529 L 674,530 L 674,531 L 674,532 L 674,532 L 673,533 L 673,534 L 673,534 L 672,535 L 672,536 L 672,537 L 672,537 L 671,538 L 671,539 L 671,539 L 670,540 L 670,541 L 670,541 L 669,542 L 669,543 L 669,543 L 668,544 L 668,545 L 668,545 L 667,546 L 667,547 L 667,547 L 666,548 L 666,549 L 666,549 L 665,550 L 665,550 L 664,551 L 664,552 L 664,552 L 663,553 L 663,553 L 662,554 L 662,555 L 662,555 L 661,556 L 661,556 L 660,557 L 660,558 L 660,558 L 659,559 L 659,559 L 658,560 L 658,560 L 657,561 L 657,562 L 657,562 L 656,563 L 656,563 L 655,564 L 655,564 L 654,565 L 654,566 L 654,566 L 653,567 L 653,567 L 652,568 L 652,568 L 651,569 L 651,570 L 651,570 L 650,571 L 650,571 L 649,572 L 649,572 L 648,573 L 648,573 L 647,574 L 647,574 L 646,575 L 646,575 L 645,576 L 645,576 L 644,577 L 644,577 L 643,578 L 643,578 L 642,579 L 642,579 L 641,580 L 641,580 L 640,580 L 639,581 L 639,581 L 638,582 L 638,583 L 638,584 L 638,585 L 638,585 L 637,586 L 637,587 L 637,588 L 637,589 L 637,590 L 637,590 L 636,591 L 636,592 L 636,593 L 636,594 L 636,595 L 636,596 L 636,596 L 635,597 L 635,598 L 635,599 L 636,599 L 636,599 L 636,598 L 637,597 L 637,597 L 637,596 L 638,595 L 638,595 L 638,594 L 639,593 L 639,593 L 639,592 L 640,591 L 640,591 L 640,590 L 641,589 L 641,589 L 642,588 L 642,588 L 642,587 L 643,586 L 643,586 L 644,585 L 644,585 L 644,584 L 645,583 L 645,583 L 646,582 L 646,582 L 646,581 L 647,580 L 647,580 L 648,579 L 648,579 L 649,578 L 649,578 L 650,577 L 650,577 L 651,576 L 651,576 L 652,575 L 652,575 L 653,574 L 653,574 L 654,573 L 654,573 L 655,572 L 655,572 L 656,571 L 657,571 L 657,571 L 658,570 L 659,570 L 659,570 L 660,569 L 661,569 L 661,569 L 662,568 L 663,568 L 664,568 L 665,568 L 666,568 L 666,568 L 667,567 L 668,567 L 669,567 L 670,567 L 670,568 L 671,568 L 672,568 L 673,568 L 674,568 L 674,569 L 675,569 L 676,569 L 676,570 L 677,570 L 678,570 L 678,571 L 679,571 L 679,572 L 680,572 L 680,573 L 680,574 L 681,574 L 681,575 L 682,575 L 682,576 L 682,577 L 683,577 L 683,578 L 683,579 L 683,580 L 684,580 L 684,581 L 684,582 L 684,583 L 684,584 L 684,585 L 684,586 L 684,587 L 684,588 L 684,589 L 684,589 L 683,590 L 683,591 L 683,592 L 683,593 L 683,594 L 683,594 L 682,595 L 682,596 L 682,597 L 682,597 L 681,598 L 681,599 L 681,600 L 681,600 L 680,601 L 680,602 L 680,603 L 680,603 L 679,604 L 679,605 L 679,606 L 679,607 L 679,607 L 678,608 L 678,609 L 678,610 L 678,611 L 678,612 L 678,613 L 678,614 L 678,615 L 679,615 L 679,616 L 679,617 L 680,617 L 681,617 L 682,617 L 683,617 L 684,617 L 684,617 L 685,616 L 686,616 L 686,616 L 687,615 L 688,615 L 688,615 L 689,614 L 689,614 L 690,613 L 690,613 L 691,612 L 692,612 L 692,612 L 693,611 L 693,611 L 694,610 L 694,610 L 695,609 L 695,609 L 696,608 L 696,608 L 697,607 L 697,607 L 698,606 L 698,606 L 699,605 L 699,605 L 700,604 L 700,604 L 700,603 L 701,602 L 701,602 L 701,601 L 701,600 L 702,599 L 702,599 L 702,598 L 702,597 L 702,596 L 703,595 L 703,595 L 703,594 L 703,593 L 704,592 L 704,592 L 704,591 L 705,590 L 705,590 L 705,589 L 706,588 L 706,588 L 706,587 L 707,586 L 707,586 L 708,585 L 708,585 L 708,584 L 709,583 L 709,583 L 709,582 L 710,581 L 710,581 L 711,580 L 711,580 L 712,579 L 712,579 L 712,578 L 713,577 L 713,577 L 714,576 L 714,576 L 715,575 L 715,575 L 716,574 L 716,574 L 717,573 L 717,573 L 718,572 L 718,572 L 719,571 L 719,571 L 720,570 L 720,570 L 721,569 L 721,569 L 722,568 L 722,568 L 723,567 L 723,567 L 724,566 L 724,566 L 725,565 L 726,565 L 726,565 L 727,564 L 727,564 L 728,563 L 729,563 L 729,563 L 730,562 L 731,562 L 731,562 L 732,561 L 733,561 L 733,561 L 734,560 L 735,560 L 736,560 L 736,560 L 737,559 L 738,559 L 739,559 L 739,559 L 740,558 L 741,558 L 742,558 L 743,558 L 744,558 L 745,558 L 746,558 L 747,558 L 748,558 L 749,558 L 750,558 L 751,558 L 751,559 L 752,559 L 753,559 L 754,559 L 754,560 L 755,560 L 756,560 L 756,561 L 757,561 L 757,562 L 758,562 L 758,563 L 759,563 L 759,564 L 760,564 L 760,565 L 760,566 L 761,566 L 761,567 L 761,568 L 761,569 L 761,570 L 761,571 L 761,572 L 761,573 L 761,574 L 761,575 L 761,575 L 760,576 L 760,577 L 760,577 L 759,578 L 759,579 L 759,580 L 759,580 L 758,581 L 758,581 L 757,582 L 757,583 L 757,583 L 756,584 L 756,584 L 755,585 L 755,585 L 754,586 L 754,586 L 753,587 L 753,587 L 752,588 L 752,588 L 751,589 L 751,589 L 750,590 L 750,590 L 749,591 L 749,591 L 748,591 L 747,592 L 747,592 L 746,593 L 746,593 L 745,593 L 744,594 L 744,594 L 743,595 L 743,595 L 742,595 L 741,596 L 741,596 L 740,596 L 739,597 L 739,597 L 738,597 L 737,598 L 737,598 L 736,598 L 735,599 L 735,599 L 734,599 L 733,600 L 733,600 L 732,600 L 731,600 L 730,601 L 730,601 L 729,601 L 728,601 L 727,602 L 727,602 L 726,602 L 725,602 L 724,603 L 724,603 L 723,603 L 722,603 L 721,603 L 720,604 L 720,604 L 719,604 L 718,604 L 717,605 L 717,606 L 717,607 L 717,608 L 717,609 L 717,610 L 718,610 L 718,611 L 718,612 L 719,612 L 719,613 L 719,614 L 720,614 L 720,615 L 721,615 L 721,616 L 722,616 L 723,616 L 723,617 L 724,617 L 725,617 L 726,617 L 726,618 L 727,618 L 728,618 L 729,618 L 730,618 L 731,618 L 732,618 L 733,618 L 734,618 L 734,618 L 735,617 L 736,617 L 737,617 L 737,617 L 738,616 L 739,616 L 740,616 L 740,616 L 741,615 L 742,615 L 742,615 L 743,614 L 744,614 L 744,614 L 745,613 L 746,613 L 746,613 L 747,612 L 748,612 L 748,612 L 749,611 L 750,611 L 750,611 L 751,610 L 751,610 L 752,609 L 753,609 L 753,609 L 754,608 L 754,608 L 755,607 L 756,607 L 756,607 L 757,606 L 757,606 L 758,605 L 758,605 L 759,604 L 760,604 L 760,604 L 761,603 L 761,603 L 762,602 L 762,602 L 763,601 L 763,601 L 764,600 L 764,600 L 765,599 L 765,599 L 766,598 L 766,598 L 766,597 L 766,596 L 767,595 L 767,595 L 767,594 L 767,593 L 768,592 L 768,592 L 768,591 L 769,590 L 769,590 L 769,589 L 769,588 L 770,587 L 770,587 L 771,586 L 771,586 L 771,585 L 772,584 L 772,584 L 772,583 L 773,582 L 773,582 L 774,581 L 774,581 L 774,580 L 775,579 L 775,579 L 776,578 L 776,578 L 777,577 L 777,577 L 777,576 L 778,575 L 778,575 L 779,574 L 779,574 L 780,573 L 780,573 L 781,572 L 781,572 L 782,571 L 782,571 L 783,570 L 783,570 L 784,569 L 784,569 L 785,568 L 785,568 L 786,567 L 787,567 L 787,567 L 788,566 L 788,566 L 789,565 L 789,565 L 790,564 L 791,564 L 791,564 L 792,563 L 793,563 L 793,563 L 794,562 L 794,562 L 795,561 L 796,561 L 796,561 L 797,560 L 798,560 L 799,560 L 799,560 L 800,559 L 801,559 L 802,559 L 802,559 L 803,558 L 804,558 L 805,558 L 806,558 L 807,558 L 807,558 L 808,557 L 809,557 L 810,557 L 811,557 L 812,557 L 812,558 L 813,558 L 814,558 L 815,558 L 816,558 L 816,559 L 817,559 L 818,559 L 819,559 L 819,560 L 820,560 L 820,561 L 821,561 L 822,561 L 822,562 L 823,562 L 823,563 L 823,564 L 824,564 L 824,565 L 825,565 L 825,566 L 825,567 L 825,568 L 826,568 L 826,569 L 826,570 L 826,571 L 826,572 L 826,572 L 825,573 L 825,574 L 825,575 L 825,576 L 825,576 L 824,577 L 824,578 L 824,578 L 823,579 L 823,580 L 823,580 L 822,581 L 822,581 L 821,582 L 821,582 L 820,583 L 820,583 L 819,584 L 819,585 L 819,585 L 818,586 L 818,586 L 817,587 L 817,587 L 816,588 L 816,588 L 815,589 L 815,589 L 814,589 L 813,590 L 813,590 L 812,591 L 812,591 L 811,592 L 811,592 L 810,592 L 809,593 L 809,593 L 808,594 L 808,594 L 807,594 L 806,595 L 806,595 L 805,595 L 804,596 L 804,596 L 803,596 L 802,597 L 802,597 L 801,597 L 800,598 L 800,598 L 799,598 L 798,599 L 798,599 L 797,599 L 796,599 L 795,600 L 795,600 L 794,600 L 793,600 L 792,601 L 792,601 L 791,601 L 790,601 L 789,602 L 789,602 L 788,602 L 787,602 L 786,603 L 786,603 L 785,603 L 784,603 L 783,603 L 782,604 L 782,604 L 781,605 L 781,606 L 781,607 L 781,608 L 781,609 L 781,610 L 781,611 L 782,611 L 782,612 L 782,613 L 783,613 L 783,614 L 784,614 L 784,615 L 785,615 L 785,616 L 786,616 L 786,617 L 787,617 L 788,617 L 789,617 L 789,618 L 790,618 L 791,618 L 792,618 L 793,618 L 794,618 L 795,618 L 796,618 L 797,618 L 798,618 L 798,618 L 799,617 L 800,617 L 801,617 L 802,617 L 802,617 L 803,616 L 804,616 L 805,616 L 805,616 L 806,615 L 807,615 L 807,615 L 808,614 L 809,614 L 809,614 L 810,613 L 811,613 L 811,613 L 812,612 L 813,612 L 813,612 L 814,611 L 814,611 L 815,610 L 816,610 L 816,610 L 817,609 L 817,609 L 818,608 L 818,608 L 819,607 L 820,607 L 820,607 L 821,606 L 821,606 L 822,605 L 822,605 L 823,604 L 824,604 L 824,604 L 825,603 L 825,603 L 826,602 L 826,602 L 827,601 L 827,601 L 828,600 L 828,600 L 829,599 L 829,599 L 830,598 L 831,598 L 831,598 L 831,597 L 832,596 L 832,596 L 833,595 L 834,595 L 834,595 L 835,594 L 835,594 L 835,593 L 836,592 L 836,592 L 837,591 L 837,591 L 838,590 L 838,590 L 838,589 L 839,588 L 839,588 L 840,587 L 841,587 L 842,587 L 842,588 L 843,588 L 843,589 L 844,589 L 844,590 L 844,591 L 844,591 L 843,592 L 843,593 L 843,593 L 842,594 L 842,594 L 841,595 L 841,595 L 840,596 L 840,597 L 840,597 L 839,598 L 839,598 L 838,599 L 838,599 L 837,600 L 837,600 L 836,601 L 836,601 L 835,602 L 835,602 L 834,603 L 834,604 L 834,604 L 833,605 L 833,605 L 832,606 L 832,606 L 831,607 L 831,607 L 830,608 L 830,608 L 829,609 L 829,609 L 828,610 L 828,610 L 827,611 L 827,611 L 826,611 L 825,612 L 825,612 L 824,613 L 824,613 L 823,614 L 823,614 L 822,615 L 822,615 L 821,616 L 821,616 L 820,616 L 819,617 L 819,617 L 818,618 L 818,618 L 817,618 L 816,619 L 816,619 L 815,620 L 815,620 L 814,620 L 813,621 L 813,621 L 812,621 L 811,622 L 811,622 L 810,622 L 809,623 L 809,623 L 808,623 L 807,624 L 807,624 L 806,624 L 805,625 L 805,625 L 804,625 L 803,625 L 802,626 L 802,626 L 801,626 L 800,626 L 799,626 L 798,627 L 798,627 L 797,627 L 796,627 L 795,627 L 794,627 L 793,628 L 793,628 L 792,628 L 791,628 L 790,628 L 789,628 L 788,628 L 787,628 L 786,628 L 785,628 L 785,627 L 784,627 L 783,627 L 782,627 L 781,627 L 780,627 L 779,627 L 779,626 L 778,626 L 777,626 L 776,626 L 776,625 L 775,625 L 775,624 L 774,624 L 773,624 L 773,623 L 772,623 L 772,622 L 771,622 L 771,621 L 770,621 L 770,620 L 769,620 L 769,619 L 768,619 L 768,618 L 768,617 L 767,617 L 767,616 L 767,615 L 766,615 L 766,614 L 766,613 L 766,612 L 765,612 L 765,611 L 765,610 L 765,609 L 765,608 L 765,607 L 764,608 L 764,608 L 763,609 L 763,609 L 762,610 L 762,610 L 761,611 L 761,611 L 760,612 L 760,612 L 759,613 L 759,613 L 758,614 L 758,614 L 757,615 L 757,615 L 756,616 L 756,616 L 755,616 L 754,617 L 754,617 L 753,618 L 753,618 L 752,619 L 752,619 L 751,619 L 750,620 L 750,620 L 749,621 L 749,621 L 748,621 L 747,622 L 747,622 L 746,622 L 745,623 L 745,623 L 744,623 L 743,624 L 743,624 L 742,624 L 741,625 L 741,625 L 740,625 L 739,625 L 738,626 L 738,626 L 737,626 L 736,626 L 735,626 L 734,627 L 734,627 L 733,627 L 732,627 L 731,627 L 730,628 L 730,628 L 729,628 L 728,628 L 727,628 L 726,628 L 725,628 L 724,628 L 723,628 L 722,628 L 721,628 L 720,628 L 719,628 L 719,627 L 718,627 L 717,627 L 716,627 L 715,627 L 714,627 L 714,626 L 713,626 L 712,626 L 712,625 L 711,625 L 710,625 L 710,624 L 709,624 L 708,624 L 708,623 L 707,623 L 707,622 L 706,622 L 706,621 L 705,621 L 705,620 L 704,620 L 704,619 L 704,618 L 703,618 L 703,617 L 702,617 L 702,616 L 702,615 L 702,614 L 701,614 L 701,613 L 701,612 L 700,613 L 700,613 L 699,614 L 699,614 L 698,615 L 698,615 L 697,616 L 697,616 L 696,617 L 696,617 L 695,618 L 695,618 L 694,619 L 694,619 L 693,620 L 693,620 L 692,620 L 691,621 L 691,621 L 690,622 L 690,622 L 689,623 L 689,623 L 688,623 L 687,624 L 687,624 L 686,624 L 685,625 L 685,625 L 684,625 L 683,626 L 683,626 L 682,626 L 681,626 L 680,626 L 679,626 L 678,626 L 677,626 L 676,626 L 675,626 L 674,626 L 673,626 L 672,626 L 671,626 L 671,625 L 670,625 L 669,625 L 669,624 L 668,624 L 667,624 L 667,623 L 666,623 L 666,622 L 666,621 L 665,621 L 665,620 L 665,619 L 664,619 L 664,618 L 664,617 L 664,616 L 664,615 L 663,615 L 664,614 L 664,614 L 664,613 L 664,612 L 663,612 L 663,611 L 664,610 L 664,610 L 664,609 L 664,608 L 664,607 L 664,606 L 665,605 L 665,605 L 665,604 L 665,603 L 665,602 L 666,601 L 666,601 L 666,600 L 666,599 L 667,598 L 667,598 L 667,597 L 667,596 L 667,595 L 668,594 L 668,594 L 668,593 L 668,592 L 668,591 L 668,590 L 668,589 L 668,588 L 668,587 L 667,587 L 667,586 L 667,585 L 666,585 L 666,584 L 665,584 L 664,584 L 663,584 L 663,583 L 662,583 L 661,583 L 660,584 L 660,584 L 659,584 L 658,584 L 657,584 L 656,585 L 656,585 L 655,586 L 655,586 L 654,586 L 653,587 L 653,588 L 653,588 L 652,589 L 652,589 L 651,590 L 651,590 L 650,591 L 650,592 L 650,592 L 649,593 L 649,593 L 648,594 L 648,595 L 648,595 L 647,596 L 647,597 L 647,597 L 646,598 L 646,599 L 646,599 L 645,600 L 645,600 L 644,601 L 644,602 L 644,603 L 644,603 L 643,604 L 643,605 L 643,605 L 642,606 L 642,607 L 642,607 L 641,608 L 641,609 L 641,609 L 640,610 L 640,611 L 640,611 L 639,612 L 639,613 L 639,613 L 638,614 L 638,615 L 638,615 L 637,616 L 637,617 L 637,617 L 636,618 L 636,619 L 636,619 L 635,620 L 635,621 L 635,621 L 634,622 L 634,623 L 634,623 L 633,624 L 633,624 L 632,625 L 632,625 L 631,625 L 630,626 L 630,626 L 629,626 L 628,626 L 627,626 L 626,626 L 625,626 L 624,626 L 624,625 L 623,625 L 623,624 L 622,624 L 622,623 L 621,623 L 621,622 L 621,621 L 621,620 L 620,620 L 620,619 L 620,618 L 620,617 L 620,616 L 620,615 L 620,614 L 620,613 L 620,612 L 620,611 L 620,610 L 620,609 L 619,610 L 619,610 L 618,610 L 617,611 L 617,611 L 616,612 L 616,612 L 615,612 L 614,613 L 614,613 L 613,613 L 612,614 L 612,614 L 611,614 L 610,614 L 609,615 L 609,615 L 608,616 L 608,617 L 608,617 L 607,618 L 607,619 L 607,619 L 606,620 L 606,620 L 605,621 L 605,621 L 604,622 L 604,622 L 603,623 L 603,623 L 602,624 L 602,624 L 601,625 L 601,625 L 600,625 L 599,626 L 599,626 L 598,626 L 597,627 L 597,627 L 596,627 L 595,627 L 594,628 L 594,628 L 593,628 L 592,628 L 591,628 L 590,629 L 590,629 L 589,629 L 588,629 L 587,629 L 586,629 L 585,629 L 584,629 L 584,628 L 583,629 L 583,629 L 582,629 L 582,628 L 581,628 L 580,628 L 579,628 L 578,628 L 578,627 L 577,627 L 576,627 L 575,627 L 574,627 L 574,626 L 573,626 L 572,626 L 572,625 L 571,625 L 571,624 L 570,624 L 569,624 L 569,623 L 568,623 L 568,622 L 567,622 L 567,621 L 566,621 L 566,620 L 566,619 L 565,619 L 565,618 L 564,618 L 564,617 L 564,616 L 563,616 L 563,615 L 562,616 L 562,616 L 561,617 L 561,617 L 560,618 L 560,618 L 559,619 L 559,619 L 558,619 L 557,620 L 557,620 L 556,621 L 556,621 L 555,621 L 554,622 L 554,622 L 553,623 L 553,623 L 552,623 L 551,623 L 550,624 L 550,624 L 549,624 L 548,624 L 547,625 L 547,625 L 546,625 L 545,625 L 544,625 L 543,625 L 542,625 L 541,625 L 540,625 L 539,625 L 538,625 L 537,625 L 536,625 L 535,625 L 535,624 L 534,624 L 533,624 L 533,623 L 532,623 L 531,623 L 531,622 L 530,622 L 530,621 L 529,621 L 529,620 L 529,619 L 528,619 L 528,618 L 528,617 L 527,617 L 527,616 L 527,615 L 527,614 L 527,613 L 527,612 L 527,611 L 527,610 L 527,609 L 528,608 L 528,608 L 528,607 L 528,606 L 528,605 L 528,604 L 529,603 L 529,603 L 529,602 L 529,601 L 530,600 L 530,600 L 530,599 L 531,598 L 531,598 L 531,597 L 532,596 L 532,596 L 532,595 L 532,594 L 533,593 L 533,593 L 533,592 L 534,591 L 534,591 L 534,590 L 535,589 L 535,589 L 535,588 L 535,587 L 536,586 L 536,586 L 536,585 L 536,584 L 536,583 L 536,582 L 536,581 L 536,580 L 536,579 L 535,579 L 535,578 L 535,577 L 534,577 L 534,576 L 533,576 L 533,575 L 532,575 L 532,574 L 531,574 L 530,574 L 530,573 L 529,573 L 528,574 L 528,575 L 528,575 L 527,576 L 527,577 L 527,577 L 526,578 L 526,579 L 526,579 L 525,580 L 525,581 L 525,582 L 525,582 L 524,583 L 524,584 L 524,584 L 523,585 L 523,586 L 523,586 L 522,587 L 522,588 L 522,588 L 521,589 L 521,590 L 521,590 L 520,591 L 520,592 L 520,592 L 519,593 L 519,594 L 519,594 L 518,595 L 518,595 L 517,596 L 517,597 L 517,597 L 516,598 L 516,598 L 515,599 L 515,600 L 515,600 L 514,601 L 514,601 L 513,602 L 513,603 L 513,603 L 512,604 L 512,604 L 511,605 L 511,605 L 510,606 L 510,606 L 509,607 L 509,607 L 508,608 L 508,608 L 507,609 L 507,609 L 506,610 L 506,610 L 505,611 L 505,611 L 504,612 L 504,612 L 503,613 L 503,613 L 502,614 L 502,614 L 501,615 L 501,615 L 500,616 L 500,616 L 499,617 L 499,617 L 498,617 L 497,618 L 497,618 L 496,619 L 496,619 L 495,620 L 495,620 L 494,620 L 493,621 L 493,621 L 492,622 L 492,622 L 491,622 L 490,623 L 490,623 L 489,623 L 488,624 L 488,624 L 487,624 L 486,625 L 486,625 L 485,625 L 484,626 L 484,626 L 483,626 L 482,626 L 481,627 L 481,627 L 480,627 L 479,627 L 478,627 L 477,627 L 476,628 L 476,628 L 475,628 L 474,628 L 473,628 L 472,628 L 471,628 L 470,628 L 469,628 L 468,628 L 467,628 L 466,628 L 465,628 L 465,627 L 464,627 L 463,627 L 462,627 L 461,627 L 461,626 L 460,626 L 459,626 L 459,625 L 458,625 L 457,625 L 457,624 L 456,624 L 455,624 L 455,623 L 454,623 L 454,622 L 453,622 L 453,621 L 452,621 L 452,620 L 452,619 L 451,619 L 451,618 L 451,617 L 450,617 L 450,616 L 450,615 L 450,614 L 449,615 L 449,615 L 448,616 L 448,617 L 448,617 L 447,618 L 447,618 L 446,619 L 446,619 L 445,620 L 445,620 L 444,620 L 443,621 L 443,621 L 442,622 L 442,622 L 441,623 L 441,623 L 440,624 L 440,624 L 439,624 L 438,625 L 438,625 L 437,625 L 436,626 L 436,626 L 435,626 L 434,627 L 434,627 L 433,627 L 432,627 L 431,627 L 430,627 L 429,628 L 429,628 L 428,628 L 427,628 L 426,628 L 426,627 L 425,627 L 424,627 L 423,627 L 422,627 L 422,626 L 421,626 L 420,626 L 420,625 L 419,625 L 419,624 L 418,624 L 418,623 L 417,623 L 416,623 L 416,622 L 416,621 L 415,621 L 415,620 L 414,620 L 414,619 L 413,619 L 413,618 L 413,617 L 412,617 L 412,616 L 411,616 L 411,615 L 411,614 L 410,614 L 410,613 L 410,612 L 410,611 L 409,611 L 409,610 L 409,609 L 408,609 L 408,608 L 408,607 L 408,606 L 408,605 L 407,605 L 407,604 L 407,603 L 407,602 L 406,602 L 406,601 L 406,600 L 406,599 L 406,598 L 405,598 L 406,597 L 406,597 L 407,596 L 407,596 L 408,595 L 409,595 L 410,595 L 411,595 L 411,595 L 412,594 L 413,594 L 414,594 L 415,594 L 415,594 L 416,593 L 417,593 L 418,593 L 419,593 L 419,593 L 420,592 L 421,592 L 421,592 L 422,591 L 423,591 L 423,591 L 424,590 L 425,590 L 425,590 L 426,589 L 426,589 L 427,588 L 427,588 L 428,587 L 428,587 L 428,586 L 429,585 L 429,585 L 429,584 L 429,583 L 429,582 L 429,581 L 429,580 L 429,579 L 429,578 L 428,578 L 428,577 L 427,577 L 427,576 L 426,576 L 426,575 L 425,575 L 424,575 L 424,574 L 423,574 L 422,574 L 421,574 L 420,574 L 419,574 L 418,574 L 417,575 L 417,575 L 416,575 L 415,576 L 415,576 L 414,576 L 413,577 L 413,577 L 412,578 L 412,578 L 411,579 L 411,579 L 410,580 L 410,580 L 409,581 L 409,581 L 408,582 L 408,582 L 407,583 L 407,583 L 406,584 L 406,584 L 405,585 L 405,586 L 405,586 L 404,587 L 404,587 L 403,588 L 403,589 L 403,589 L 402,590 L 402,591 L 402,591 L 401,592 L 401,593 L 401,593 L 400,594 L 400,595 L 400,595 L 399,596 L 399,597 L 399,597 L 398,598 L 398,599 L 398,599 L 397,600 L 397,601 L 397,602 L 397,602 L 396,603 L 396,604 L 396,604 L 395,605 L 395,606 L 395,606 L 394,607 L 394,608 L 394,609 L 394,609 L 393,610 L 393,611 L 393,612 L 393,612 L 392,613 L 392,614 L 392,614 L 391,615 L 391,616 L 391,617 L 391,617 L 390,618 L 390,619 L 390,619 L 389,620 L 389,621 L 389,621 L 388,622 L 388,623 L 388,623 L 387,624 L 387,624 L 386,625 L 386,625 L 385,625 L 384,626 L 384,626 L 383,626 L 382,626 L 381,626 L 380,626 L 379,626 L 378,626 L 378,625 L 377,625 L 377,624 L 376,624 L 376,623 L 375,623 L 375,622 L 375,621 L 374,621 L 374,620 L 374,619 L 373,619 L 373,618 L 373,617 L 373,616 L 373,615 L 373,614 L 373,613 L 373,612 L 373,611 L 373,610 L 373,609 L 373,608 L 373,607 L 373,606 L 373,605 L 373,604 L 373,603 L 372,604 L 372,604 L 371,605 L 371,605 L 370,606 L 370,607 L 370,607 L 369,608 L 369,608 L 368,609 L 368,609 L 367,610 L 367,610 L 366,611 L 366,611 L 365,612 L 365,612 L 364,613 L 364,613 L 363,614 L 363,614 L 362,615 L 362,615 L 361,616 L 361,616 L 360,617 L 360,617 L 359,618 L 359,618 L 358,618 L 357,619 L 357,619 L 356,620 L 356,620 L 355,621 L 355,621 L 354,621 L 353,622 L 353,622 L 352,623 L 352,623 L 351,623 L 350,624 L 350,624 L 349,624 L 348,624 L 347,625 L 347,625 L 346,625 L 345,625 L 344,625 L 343,626 L 343,626 L 342,626 L 341,626 L 340,626 L 339,626 L 339,625 L 338,625 L 337,625 L 336,625 L 335,625 L 335,624 L 334,624 L 333,624 L 333,623 L 332,623 L 332,622 L 331,622 L 331,621 L 330,621 L 330,620 L 329,620 L 329,619 L 329,618 L 328,618 L 328,617 L 328,616 L 328,615 L 327,615 L 327,614 L 327,613 L 327,612 L 327,611 L 327,610 L 328,609 L 328,609 L 328,608 L 328,607 L 327,608 L 327,609 L 327,609 L 326,610 L 326,610 L 325,611 L 325,612 L 325,612 L 324,613 L 324,613 L 323,614 L 323,614 L 322,615 L 322,616 L 322,616 L 321,617 L 321,617 L 320,618 L 320,618 L 319,619 L 319,619 L 318,620 L 318,620 L 317,621 L 317,621 L 316,622 L 316,622 L 315,623 L 315,623 L 314,624 L 314,624 L 313,624 L 312,625 L 312,625 L 311,626 L 311,626 L 310,626 L 309,627 L 309,627 L 308,627 L 307,628 L 307,628 L 306,628 L 305,629 L 305,629 L 304,629 L 303,629 L 302,629 L 301,629 L 300,630 L 300,630 Z" fill="black" stroke="none" /><path d="M 401,558 L 402,557 L 402,557 L 403,556 L 403,556 L 404,555 L 404,555 L 405,554 L 406,554 L 406,554 L 407,553 L 407,553 L 408,552 L 408,552 L 409,551 L 409,551 L 410,550 L 410,550 L 411,549 L 411,549 L 411,548 L 412,547 L 412,547 L 413,546 L 413,546 L 414,545 L 414,545 L 415,544 L 415,544 L 415,543 L 416,542 L 416,542 L 417,541 L 417,541 L 417,540 L 418,539 L 418,539 L 419,538 L 419,538 L 419,537 L 420,536 L 420,536 L 420,535 L 421,534 L 421,534 L 421,533 L 422,532 L 422,532 L 422,531 L 423,530 L 423,530 L 423,529 L 424,528 L 424,528 L 424,527 L 425,526 L 425,526 L 425,525 L 425,524 L 426,523 L 426,523 L 426,522 L 426,521 L 426,520 L 427,519 L 427,519 L 427,518 L 427,517 L 427,516 L 426,516 L 425,517 L 425,517 L 424,518 L 424,518 L 423,519 L 423,520 L 423,520 L 422,521 L 422,521 L 421,522 L 421,522 L 420,523 L 420,524 L 420,524 L 419,525 L 419,525 L 418,526 L 418,527 L 418,527 L 417,528 L 417,528 L 416,529 L 416,530 L 416,530 L 415,531 L 415,531 L 414,532 L 414,533 L 414,533 L 413,534 L 413,534 L 412,535 L 412,536 L 412,536 L 411,537 L 411,538 L 411,538 L 410,539 L 410,540 L 410,540 L 409,541 L 409,541 L 408,542 L 408,543 L 408,543 L 407,544 L 407,545 L 407,545 L 406,546 L 406,547 L 406,547 L 405,548 L 405,549 L 405,549 L 404,550 L 404,551 L 404,551 L 403,552 L 403,553 L 403,553 L 402,554 L 402,555 L 402,555 L 401,556 L 401,556 L 400,557 L 400,558 L 401,558 L 401,558 Z" fill="black" stroke="none" /><path d="M 642,569 L 643,568 L 643,568 L 644,567 L 644,567 L 644,566 L 645,565 L 645,565 L 646,564 L 646,564 L 647,563 L 647,563 L 647,562 L 648,561 L 648,561 L 649,560 L 649,560 L 649,559 L 650,558 L 650,558 L 650,557 L 651,556 L 651,556 L 652,555 L 652,555 L 652,554 L 653,553 L 653,553 L 653,552 L 654,551 L 654,551 L 654,550 L 655,549 L 655,549 L 656,548 L 656,548 L 656,547 L 657,546 L 657,546 L 657,545 L 658,544 L 658,544 L 658,543 L 659,542 L 659,542 L 659,541 L 660,540 L 660,540 L 660,539 L 661,538 L 661,538 L 661,537 L 662,536 L 662,536 L 662,535 L 663,534 L 663,534 L 663,533 L 663,532 L 664,531 L 664,531 L 664,530 L 664,529 L 665,528 L 665,528 L 665,527 L 665,526 L 666,525 L 666,525 L 666,524 L 666,523 L 666,522 L 666,521 L 666,520 L 665,521 L 665,521 L 664,522 L 664,522 L 663,523 L 663,523 L 662,524 L 662,524 L 661,525 L 661,526 L 661,526 L 660,527 L 660,527 L 659,528 L 659,529 L 659,529 L 658,530 L 658,531 L 658,531 L 657,532 L 657,533 L 657,533 L 656,534 L 656,535 L 656,535 L 655,536 L 655,536 L 654,537 L 654,538 L 654,539 L 654,539 L 653,540 L 653,541 L 653,541 L 652,542 L 652,543 L 652,543 L 651,544 L 651,545 L 651,545 L 650,546 L 650,547 L 650,547 L 649,548 L 649,549 L 649,549 L 648,550 L 648,551 L 648,552 L 648,552 L 647,553 L 647,554 L 647,554 L 646,555 L 646,556 L 646,557 L 646,557 L 645,558 L 645,559 L 645,559 L 644,560 L 644,561 L 644,562 L 644,563 L 644,563 L 643,564 L 643,565 L 643,566 L 643,566 L 642,567 L 642,568 L 642,568 L 641,569 L 642,569 L 642,569 Z" fill="black" stroke="none" /><path d="M 874,626 L 873,626 L 872,626 L 871,626 L 870,626 L 869,626 L 868,626 L 867,626 L 866,626 L 865,626 L 864,626 L 863,626 L 863,625 L 862,625 L 861,625 L 860,625 L 860,624 L 859,624 L 858,624 L 858,623 L 857,623 L 856,623 L 856,622 L 855,622 L 855,621 L 855,620 L 854,620 L 854,619 L 853,619 L 853,618 L 853,617 L 853,616 L 852,616 L 852,615 L 852,614 L 852,613 L 852,612 L 851,612 L 851,611 L 852,610 L 852,610 L 852,609 L 851,609 L 851,608 L 851,607 L 851,606 L 851,605 L 851,604 L 852,603 L 852,603 L 852,602 L 852,601 L 852,600 L 852,599 L 852,598 L 852,597 L 853,596 L 853,596 L 853,595 L 853,594 L 853,593 L 853,592 L 854,591 L 854,591 L 854,590 L 854,589 L 855,588 L 855,588 L 855,587 L 855,586 L 856,585 L 856,585 L 856,584 L 856,583 L 857,582 L 857,582 L 857,581 L 858,580 L 858,580 L 858,579 L 858,578 L 859,577 L 859,577 L 859,576 L 860,575 L 860,575 L 860,574 L 860,573 L 861,572 L 861,572 L 861,571 L 862,570 L 862,570 L 863,569 L 863,569 L 863,568 L 862,568 L 861,568 L 860,568 L 859,568 L 859,567 L 858,567 L 857,567 L 856,567 L 856,566 L 855,566 L 854,566 L 854,565 L 853,565 L 852,565 L 852,564 L 851,564 L 851,563 L 851,562 L 851,561 L 852,560 L 852,560 L 852,559 L 853,558 L 853,558 L 853,557 L 854,556 L 854,556 L 855,555 L 856,555 L 857,555 L 858,555 L 858,556 L 859,556 L 860,556 L 861,556 L 862,556 L 862,557 L 863,557 L 864,557 L 865,557 L 866,557 L 866,558 L 867,558 L 868,558 L 868,558 L 868,557 L 869,556 L 869,556 L 869,555 L 870,554 L 870,554 L 870,553 L 871,552 L 871,552 L 871,551 L 872,550 L 872,550 L 872,549 L 873,548 L 873,548 L 873,547 L 874,546 L 874,546 L 874,545 L 875,544 L 875,544 L 875,543 L 876,542 L 876,542 L 876,541 L 877,540 L 877,540 L 878,539 L 878,539 L 878,538 L 879,537 L 879,537 L 879,536 L 880,535 L 880,535 L 881,534 L 881,534 L 881,533 L 882,532 L 882,532 L 882,531 L 883,530 L 883,530 L 884,529 L 884,529 L 885,528 L 885,528 L 886,527 L 886,527 L 887,526 L 887,526 L 888,525 L 889,525 L 889,525 L 890,524 L 891,524 L 892,524 L 893,524 L 894,524 L 894,525 L 895,525 L 895,526 L 896,526 L 897,526 L 897,527 L 897,528 L 898,528 L 898,529 L 898,530 L 898,531 L 898,532 L 898,532 L 897,533 L 897,534 L 897,534 L 896,535 L 896,536 L 896,536 L 895,537 L 895,538 L 895,538 L 894,539 L 894,540 L 894,540 L 893,541 L 893,542 L 893,542 L 892,543 L 892,544 L 892,544 L 891,545 L 891,546 L 891,546 L 890,547 L 890,547 L 889,548 L 889,549 L 889,549 L 888,550 L 888,551 L 888,551 L 887,552 L 887,552 L 886,553 L 886,554 L 886,554 L 885,555 L 885,556 L 885,556 L 884,557 L 884,558 L 884,558 L 883,559 L 883,560 L 884,560 L 885,560 L 886,560 L 887,560 L 888,560 L 889,560 L 890,560 L 891,560 L 892,560 L 893,560 L 894,560 L 895,560 L 896,560 L 897,560 L 898,560 L 899,560 L 900,560 L 901,560 L 902,560 L 903,560 L 903,560 L 904,559 L 904,560 L 905,560 L 905,560 L 906,559 L 907,559 L 907,560 L 908,560 L 909,560 L 909,561 L 909,562 L 909,563 L 909,564 L 909,564 L 908,565 L 908,565 L 907,566 L 907,566 L 906,566 L 905,566 L 904,567 L 904,567 L 903,567 L 902,567 L 901,567 L 900,567 L 899,567 L 898,567 L 897,567 L 896,568 L 896,568 L 895,568 L 894,568 L 893,568 L 892,568 L 891,568 L 890,568 L 889,568 L 888,568 L 887,568 L 886,568 L 885,568 L 884,568 L 883,568 L 882,569 L 882,569 L 881,569 L 880,569 L 879,569 L 878,569 L 877,570 L 877,570 L 876,571 L 876,572 L 876,573 L 876,573 L 875,574 L 875,575 L 875,575 L 874,576 L 874,577 L 874,578 L 874,578 L 873,579 L 873,580 L 873,580 L 872,581 L 872,582 L 872,583 L 872,583 L 871,584 L 871,585 L 871,586 L 871,586 L 870,587 L 870,588 L 870,589 L 870,589 L 869,590 L 869,591 L 869,592 L 869,592 L 868,593 L 868,594 L 868,595 L 868,596 L 868,597 L 868,597 L 867,598 L 867,599 L 867,600 L 867,601 L 867,601 L 866,602 L 866,603 L 866,604 L 866,605 L 866,606 L 866,607 L 866,608 L 866,609 L 866,610 L 866,611 L 866,612 L 867,612 L 867,613 L 867,614 L 868,614 L 868,615 L 869,615 L 869,616 L 870,616 L 871,616 L 871,617 L 872,617 L 873,617 L 873,617 L 874,616 L 875,616 L 876,616 L 877,616 L 878,616 L 878,616 L 879,615 L 880,615 L 881,615 L 881,615 L 882,614 L 883,614 L 884,614 L 884,614 L 885,613 L 886,613 L 886,613 L 887,612 L 887,612 L 888,611 L 889,611 L 889,611 L 890,610 L 890,610 L 891,609 L 891,609 L 892,608 L 893,608 L 893,608 L 894,607 L 894,607 L 895,606 L 895,606 L 896,605 L 896,605 L 897,604 L 897,604 L 898,603 L 898,603 L 899,602 L 899,602 L 900,601 L 900,601 L 901,600 L 901,600 L 902,599 L 902,599 L 903,598 L 903,598 L 904,597 L 904,597 L 905,596 L 905,596 L 905,595 L 906,594 L 906,594 L 907,593 L 907,593 L 908,592 L 909,592 L 910,592 L 911,592 L 911,593 L 912,593 L 912,594 L 912,595 L 912,596 L 912,596 L 911,597 L 911,598 L 911,598 L 910,599 L 910,599 L 909,600 L 909,601 L 909,601 L 908,602 L 908,602 L 907,603 L 907,603 L 906,604 L 906,604 L 905,605 L 905,605 L 904,606 L 904,607 L 904,607 L 903,608 L 903,608 L 902,609 L 902,609 L 901,610 L 901,610 L 900,611 L 900,611 L 899,612 L 899,612 L 898,613 L 898,613 L 897,614 L 897,614 L 896,614 L 895,615 L 895,615 L 894,616 L 894,616 L 893,617 L 893,617 L 892,618 L 892,618 L 891,618 L 890,619 L 890,619 L 889,620 L 889,620 L 888,620 L 887,621 L 887,621 L 886,621 L 885,622 L 885,622 L 884,622 L 883,623 L 883,623 L 882,623 L 881,624 L 881,624 L 880,624 L 879,624 L 878,625 L 878,625 L 877,625 L 876,625 L 875,625 L 874,626 L 874,626 Z" fill="black" stroke="none" /><path d="M 152,671 L 151,671 L 150,671 L 149,671 L 148,671 L 148,670 L 147,670 L 146,670 L 146,669 L 145,669 L 145,668 L 144,668 L 144,667 L 143,667 L 143,666 L 143,665 L 143,664 L 143,663 L 143,662 L 143,661 L 144,660 L 144,660 L 144,659 L 144,658 L 144,657 L 145,656 L 145,656 L 145,655 L 145,654 L 146,653 L 146,653 L 146,652 L 146,651 L 147,650 L 147,650 L 147,649 L 147,648 L 148,647 L 148,647 L 148,646 L 148,645 L 149,644 L 149,644 L 149,643 L 149,642 L 150,641 L 150,641 L 150,640 L 150,639 L 151,638 L 151,638 L 151,637 L 151,636 L 152,635 L 152,635 L 152,634 L 152,633 L 152,632 L 153,631 L 153,631 L 153,630 L 153,629 L 154,628 L 154,628 L 154,627 L 154,626 L 155,625 L 155,625 L 155,624 L 155,623 L 156,622 L 156,622 L 156,621 L 156,620 L 156,619 L 157,618 L 157,618 L 157,617 L 157,616 L 158,615 L 158,615 L 158,614 L 158,613 L 158,612 L 159,611 L 159,611 L 159,610 L 159,609 L 158,610 L 158,610 L 157,610 L 156,611 L 156,611 L 155,612 L 155,612 L 154,612 L 153,613 L 153,613 L 152,613 L 151,614 L 151,614 L 150,614 L 149,614 L 148,614 L 147,615 L 147,616 L 147,616 L 146,617 L 146,618 L 146,618 L 145,619 L 145,620 L 145,620 L 144,621 L 144,621 L 143,622 L 143,622 L 142,623 L 142,623 L 141,624 L 141,624 L 140,624 L 139,625 L 139,625 L 138,626 L 138,626 L 137,626 L 136,627 L 136,627 L 135,627 L 134,627 L 133,628 L 133,628 L 132,628 L 131,628 L 130,628 L 129,628 L 128,629 L 128,629 L 127,629 L 126,629 L 125,629 L 124,629 L 123,629 L 122,629 L 121,629 L 120,629 L 120,628 L 119,628 L 118,628 L 117,628 L 116,628 L 115,628 L 115,627 L 114,627 L 113,627 L 112,627 L 112,626 L 111,626 L 110,626 L 110,625 L 109,625 L 109,624 L 108,624 L 107,624 L 107,623 L 106,623 L 106,622 L 105,622 L 105,621 L 104,621 L 104,620 L 103,620 L 103,619 L 103,618 L 102,618 L 102,617 L 102,616 L 101,616 L 101,615 L 101,614 L 101,613 L 100,613 L 100,612 L 100,611 L 100,610 L 100,609 L 100,608 L 100,607 L 100,606 L 100,605 L 100,604 L 100,603 L 101,602 L 101,602 L 101,601 L 102,600 L 102,600 L 102,599 L 103,598 L 103,598 L 104,597 L 104,597 L 105,596 L 105,596 L 106,595 L 106,595 L 107,594 L 108,594 L 108,594 L 109,593 L 110,593 L 111,593 L 112,593 L 112,593 L 113,592 L 113,592 L 113,591 L 114,590 L 114,590 L 115,589 L 115,589 L 116,588 L 116,588 L 117,587 L 117,587 L 117,586 L 118,585 L 118,585 L 119,584 L 119,584 L 120,583 L 120,583 L 120,582 L 121,581 L 121,581 L 122,580 L 122,580 L 122,579 L 123,578 L 123,578 L 123,577 L 124,576 L 124,576 L 124,575 L 125,574 L 125,574 L 125,573 L 126,572 L 126,572 L 126,571 L 127,570 L 127,570 L 127,569 L 127,568 L 128,567 L 128,567 L 128,566 L 128,565 L 128,564 L 128,563 L 128,562 L 129,561 L 129,561 L 129,560 L 130,559 L 130,559 L 130,558 L 131,557 L 131,557 L 132,556 L 132,556 L 133,555 L 134,555 L 134,555 L 135,554 L 136,554 L 137,554 L 138,554 L 139,554 L 139,555 L 140,555 L 140,556 L 141,556 L 141,557 L 141,558 L 141,559 L 141,560 L 141,561 L 141,562 L 141,563 L 141,564 L 141,565 L 141,566 L 141,567 L 141,568 L 141,569 L 141,570 L 141,571 L 142,571 L 142,572 L 142,573 L 142,574 L 142,575 L 143,575 L 143,576 L 143,577 L 143,578 L 144,578 L 144,579 L 144,580 L 144,581 L 145,581 L 145,582 L 145,583 L 145,584 L 146,584 L 146,585 L 146,586 L 146,587 L 147,587 L 147,588 L 147,589 L 147,590 L 148,590 L 148,591 L 148,592 L 148,593 L 148,594 L 149,594 L 149,595 L 149,596 L 149,597 L 149,598 L 149,599 L 149,600 L 150,600 L 150,601 L 150,602 L 150,603 L 150,603 L 149,604 L 149,605 L 149,606 L 149,607 L 150,607 L 151,607 L 151,607 L 152,606 L 153,606 L 153,606 L 154,605 L 154,605 L 155,604 L 155,604 L 156,603 L 156,603 L 157,602 L 158,602 L 158,602 L 158,601 L 159,600 L 159,600 L 160,599 L 160,599 L 161,598 L 161,598 L 162,597 L 162,597 L 162,596 L 162,595 L 163,594 L 163,594 L 163,593 L 163,592 L 163,591 L 163,590 L 164,589 L 164,589 L 164,588 L 164,587 L 164,586 L 164,585 L 164,584 L 164,583 L 165,582 L 165,582 L 165,581 L 165,580 L 165,579 L 165,578 L 165,577 L 165,576 L 165,575 L 165,574 L 165,573 L 165,572 L 165,571 L 165,570 L 165,569 L 166,568 L 166,568 L 166,567 L 166,566 L 166,565 L 166,564 L 166,563 L 166,562 L 166,561 L 166,560 L 166,559 L 166,558 L 166,557 L 167,556 L 167,556 L 168,555 L 169,555 L 170,555 L 171,555 L 172,555 L 173,555 L 174,555 L 175,555 L 176,555 L 176,556 L 177,556 L 177,557 L 178,557 L 178,558 L 178,559 L 179,559 L 179,560 L 179,561 L 180,561 L 180,562 L 180,563 L 180,564 L 180,565 L 180,566 L 180,567 L 180,568 L 180,569 L 180,570 L 180,571 L 180,572 L 180,573 L 180,573 L 179,574 L 179,575 L 179,576 L 179,577 L 179,577 L 178,578 L 178,579 L 179,579 L 179,579 L 180,578 L 180,578 L 180,577 L 181,576 L 181,576 L 182,575 L 182,575 L 182,574 L 183,573 L 183,573 L 184,572 L 184,572 L 185,571 L 185,571 L 185,570 L 186,569 L 186,569 L 187,568 L 188,568 L 188,568 L 189,567 L 189,567 L 190,566 L 190,566 L 191,565 L 191,565 L 192,564 L 193,564 L 193,564 L 194,563 L 194,563 L 195,562 L 196,562 L 197,562 L 197,562 L 198,561 L 199,561 L 199,561 L 200,560 L 201,560 L 202,560 L 203,560 L 204,560 L 205,560 L 206,560 L 207,560 L 208,560 L 209,560 L 210,560 L 211,560 L 211,561 L 212,561 L 213,561 L 213,562 L 214,562 L 215,562 L 215,563 L 216,563 L 217,563 L 217,564 L 218,564 L 218,565 L 219,565 L 219,566 L 220,566 L 220,567 L 221,567 L 221,568 L 222,568 L 222,569 L 222,570 L 223,570 L 223,571 L 223,572 L 224,572 L 224,573 L 224,574 L 224,575 L 225,575 L 225,576 L 225,577 L 225,578 L 225,579 L 225,580 L 225,581 L 225,582 L 225,583 L 225,584 L 226,584 L 226,585 L 226,585 L 225,586 L 225,587 L 225,588 L 225,589 L 225,590 L 225,591 L 225,591 L 224,592 L 224,593 L 224,594 L 224,595 L 224,595 L 223,596 L 223,597 L 223,598 L 223,598 L 222,599 L 222,600 L 222,600 L 221,601 L 221,602 L 221,602 L 220,603 L 220,604 L 220,604 L 219,605 L 219,605 L 218,606 L 218,607 L 218,607 L 217,608 L 217,608 L 216,609 L 216,609 L 215,610 L 215,610 L 214,611 L 214,611 L 213,612 L 213,613 L 213,613 L 212,613 L 211,614 L 211,614 L 210,615 L 210,615 L 209,616 L 209,616 L 208,617 L 208,617 L 207,618 L 207,618 L 206,618 L 205,619 L 205,619 L 204,620 L 204,620 L 203,620 L 202,621 L 202,621 L 201,622 L 201,622 L 200,622 L 199,623 L 199,623 L 198,623 L 197,623 L 196,624 L 196,624 L 195,624 L 194,625 L 194,625 L 193,625 L 192,625 L 191,625 L 190,626 L 190,626 L 189,626 L 188,626 L 187,626 L 186,627 L 186,627 L 185,627 L 184,627 L 183,627 L 182,627 L 181,627 L 180,627 L 179,627 L 178,627 L 177,627 L 176,627 L 176,626 L 175,626 L 174,626 L 174,625 L 173,625 L 173,624 L 173,623 L 173,622 L 174,621 L 174,621 L 175,620 L 175,620 L 176,619 L 177,619 L 177,620 L 178,620 L 178,620 L 179,619 L 180,619 L 181,619 L 182,619 L 182,619 L 183,618 L 184,618 L 185,618 L 186,618 L 186,618 L 187,617 L 188,617 L 188,617 L 189,616 L 190,616 L 190,616 L 191,615 L 192,615 L 192,615 L 193,614 L 193,614 L 194,613 L 195,613 L 195,613 L 196,612 L 196,612 L 197,611 L 198,611 L 198,611 L 199,610 L 199,610 L 200,609 L 200,609 L 201,608 L 201,608 L 202,607 L 202,607 L 203,606 L 203,606 L 204,605 L 204,605 L 204,604 L 205,603 L 205,603 L 206,602 L 206,602 L 206,601 L 207,600 L 207,600 L 208,599 L 208,599 L 208,598 L 208,597 L 209,596 L 209,596 L 209,595 L 209,594 L 210,593 L 210,593 L 210,592 L 210,591 L 210,590 L 211,589 L 211,589 L 211,588 L 211,587 L 211,586 L 211,585 L 211,584 L 211,583 L 211,582 L 211,581 L 211,580 L 211,579 L 211,578 L 211,577 L 210,577 L 210,576 L 210,575 L 210,574 L 209,574 L 209,573 L 208,573 L 208,572 L 207,572 L 207,571 L 206,571 L 206,570 L 205,570 L 204,570 L 203,570 L 202,570 L 201,570 L 200,570 L 199,570 L 198,570 L 197,571 L 197,571 L 196,571 L 195,572 L 195,572 L 194,572 L 193,573 L 193,573 L 192,574 L 192,574 L 191,575 L 191,575 L 190,576 L 190,576 L 189,577 L 189,577 L 188,578 L 188,578 L 187,579 L 187,579 L 186,580 L 186,580 L 185,581 L 185,582 L 185,582 L 184,583 L 184,583 L 183,584 L 183,584 L 182,585 L 182,586 L 182,586 L 181,587 L 181,588 L 181,588 L 180,589 L 180,589 L 179,590 L 179,591 L 179,591 L 178,592 L 178,593 L 178,593 L 177,594 L 177,594 L 176,595 L 176,596 L 176,597 L 176,597 L 175,598 L 175,599 L 175,600 L 175,601 L 175,601 L 174,602 L 174,603 L 174,604 L 174,605 L 174,605 L 173,606 L 173,607 L 173,608 L 173,609 L 173,609 L 172,610 L 172,611 L 172,612 L 172,613 L 172,614 L 172,614 L 171,615 L 171,616 L 171,617 L 171,618 L 171,618 L 170,619 L 170,620 L 170,621 L 170,622 L 170,622 L 169,623 L 169,624 L 169,625 L 169,626 L 169,626 L 168,627 L 168,628 L 168,629 L 168,630 L 168,630 L 167,631 L 167,632 L 167,633 L 167,633 L 166,634 L 166,635 L 166,636 L 166,637 L 166,637 L 165,638 L 165,639 L 165,640 L 165,641 L 165,641 L 164,642 L 164,643 L 164,644 L 164,645 L 164,645 L 163,646 L 163,647 L 163,648 L 163,648 L 162,649 L 162,650 L 162,651 L 162,652 L 162,652 L 161,653 L 161,654 L 161,655 L 161,655 L 160,656 L 160,657 L 160,658 L 160,659 L 160,659 L 159,660 L 159,661 L 159,662 L 159,662 L 158,663 L 158,664 L 158,664 L 157,665 L 157,666 L 157,666 L 156,667 L 156,668 L 156,668 L 155,669 L 155,669 L 154,670 L 154,670 L 153,670 L 152,671 L 152,671 Z" fill="black" stroke="none" /><path d="M 245,596 L 246,595 L 247,595 L 248,595 L 248,595 L 249,594 L 250,594 L 251,594 L 251,594 L 252,593 L 253,593 L 254,593 L 254,593 L 255,592 L 256,592 L 256,592 L 257,591 L 258,591 L 258,591 L 259,590 L 259,590 L 260,589 L 261,589 L 261,589 L 262,588 L 262,588 L 263,587 L 263,587 L 264,586 L 265,586 L 265,586 L 266,585 L 266,585 L 267,584 L 267,584 L 268,583 L 268,583 L 269,582 L 269,582 L 270,581 L 270,581 L 271,580 L 271,580 L 271,579 L 272,578 L 272,578 L 273,577 L 273,577 L 273,576 L 274,575 L 274,575 L 274,574 L 274,573 L 274,572 L 274,571 L 274,570 L 274,569 L 274,568 L 274,567 L 273,567 L 273,566 L 272,566 L 271,566 L 271,565 L 270,565 L 269,565 L 268,566 L 268,566 L 267,566 L 266,567 L 266,567 L 265,567 L 264,568 L 264,568 L 263,568 L 262,569 L 262,569 L 261,570 L 261,570 L 260,571 L 260,571 L 259,572 L 259,572 L 258,573 L 258,573 L 257,574 L 257,574 L 256,575 L 256,575 L 255,576 L 255,576 L 254,577 L 254,577 L 253,578 L 253,579 L 253,579 L 252,580 L 252,580 L 251,581 L 251,581 L 250,582 L 250,583 L 250,583 L 249,584 L 249,585 L 249,585 L 248,586 L 248,587 L 248,587 L 247,588 L 247,589 L 247,589 L 246,590 L 246,591 L 246,591 L 245,592 L 245,593 L 245,594 L 245,594 L 244,595 L 244,596 L 245,596 L 245,596 Z" fill="black" stroke="none" /><path d="M 467,596 L 468,595 L 469,595 L 470,595 L 470,595 L 471,594 L 472,594 L 473,594 L 473,594 L 474,593 L 475,593 L 475,593 L 476,592 L 477,592 L 477,592 L 478,591 L 479,591 L 479,591 L 480,590 L 481,590 L 481,590 L 482,589 L 483,589 L 483,589 L 484,588 L 484,588 L 485,587 L 485,587 L 486,586 L 486,586 L 487,585 L 488,585 L 488,585 L 489,584 L 489,584 L 490,583 L 490,583 L 490,582 L 491,581 L 491,581 L 492,580 L 492,580 L 493,579 L 493,579 L 494,578 L 494,578 L 494,577 L 495,576 L 495,576 L 495,575 L 496,574 L 496,574 L 496,573 L 496,572 L 496,571 L 496,570 L 496,569 L 496,568 L 495,568 L 495,567 L 495,566 L 494,566 L 493,566 L 493,565 L 492,565 L 491,565 L 490,566 L 490,566 L 489,566 L 488,566 L 487,567 L 487,567 L 486,568 L 486,568 L 485,568 L 484,569 L 484,569 L 483,570 L 483,570 L 482,571 L 482,571 L 481,572 L 481,572 L 480,572 L 479,573 L 479,573 L 478,574 L 478,575 L 478,575 L 477,576 L 477,576 L 476,577 L 476,577 L 475,578 L 475,578 L 474,579 L 474,580 L 474,580 L 473,581 L 473,581 L 472,582 L 472,583 L 472,583 L 471,584 L 471,585 L 471,585 L 470,586 L 470,587 L 470,587 L 469,588 L 469,589 L 469,589 L 468,590 L 468,591 L 468,591 L 467,592 L 467,593 L 467,594 L 467,594 L 466,595 L 466,596 L 467,596 L 467,596 Z" fill="black" stroke="none" /><path d="M 785,595 L 786,594 L 787,594 L 788,594 L 788,594 L 789,593 L 790,593 L 791,593 L 791,593 L 792,592 L 793,592 L 793,592 L 794,591 L 795,591 L 795,591 L 796,590 L 797,590 L 797,590 L 798,589 L 799,589 L 799,589 L 800,588 L 801,588 L 801,588 L 802,587 L 802,587 L 803,586 L 803,586 L 804,585 L 805,585 L 805,585 L 806,584 L 806,584 L 807,583 L 807,583 L 808,582 L 808,582 L 809,581 L 809,581 L 810,580 L 810,580 L 811,579 L 811,579 L 811,578 L 812,577 L 812,577 L 813,576 L 813,576 L 813,575 L 814,574 L 814,574 L 814,573 L 814,572 L 814,571 L 814,570 L 814,569 L 814,568 L 813,568 L 813,567 L 813,566 L 812,566 L 811,566 L 811,565 L 810,565 L 809,565 L 808,565 L 807,566 L 807,566 L 806,566 L 805,566 L 804,567 L 804,567 L 803,567 L 802,568 L 802,568 L 801,569 L 801,569 L 800,570 L 800,570 L 799,570 L 798,571 L 798,571 L 797,572 L 797,572 L 796,573 L 796,573 L 795,574 L 795,575 L 795,575 L 794,576 L 794,576 L 793,577 L 793,577 L 792,578 L 792,578 L 791,579 L 791,580 L 791,580 L 790,581 L 790,581 L 789,582 L 789,583 L 789,583 L 788,584 L 788,585 L 788,585 L 787,586 L 787,587 L 787,587 L 786,588 L 786,589 L 786,589 L 785,590 L 785,591 L 785,591 L 784,592 L 784,593 L 784,593 L 783,594 L 783,595 L 784,595 L 785,595 L 785,595 Z" fill="black" stroke="none" /><path d="M 307,619 L 308,618 L 309,618 L 310,618 L 310,618 L 311,617 L 311,617 L 312,616 L 313,616 L 313,616 L 314,615 L 314,615 L 315,614 L 315,614 L 316,613 L 316,613 L 317,612 L 317,612 L 318,611 L 318,611 L 319,610 L 319,610 L 320,609 L 320,609 L 321,608 L 321,608 L 322,607 L 322,607 L 323,606 L 323,606 L 324,605 L 324,605 L 325,604 L 325,604 L 326,603 L 326,603 L 326,602 L 327,601 L 327,601 L 328,600 L 328,600 L 329,599 L 329,599 L 329,598 L 330,597 L 330,597 L 331,596 L 331,596 L 331,595 L 332,594 L 332,594 L 333,593 L 333,593 L 333,592 L 334,591 L 334,591 L 335,590 L 335,590 L 335,589 L 336,588 L 336,588 L 336,587 L 337,586 L 337,586 L 338,585 L 338,585 L 338,584 L 339,583 L 339,583 L 340,582 L 340,582 L 340,581 L 341,580 L 341,580 L 341,579 L 341,578 L 341,577 L 341,576 L 341,575 L 341,574 L 341,573 L 341,572 L 340,572 L 340,571 L 339,571 L 339,570 L 338,570 L 338,569 L 337,569 L 337,568 L 336,568 L 335,568 L 334,568 L 334,567 L 333,567 L 332,567 L 331,567 L 330,567 L 329,568 L 329,568 L 328,568 L 327,568 L 326,569 L 326,569 L 325,569 L 324,570 L 324,570 L 323,571 L 323,571 L 322,571 L 321,572 L 321,572 L 320,573 L 320,573 L 319,574 L 319,574 L 318,575 L 318,575 L 317,576 L 317,576 L 316,577 L 316,577 L 315,578 L 315,579 L 315,579 L 314,580 L 314,580 L 313,581 L 313,581 L 312,582 L 312,583 L 312,583 L 311,584 L 311,584 L 310,585 L 310,585 L 309,586 L 309,587 L 309,587 L 308,588 L 308,589 L 308,589 L 307,590 L 307,590 L 306,591 L 306,592 L 306,592 L 305,593 L 305,594 L 305,595 L 305,595 L 304,596 L 304,597 L 304,597 L 303,598 L 303,599 L 303,600 L 303,600 L 302,601 L 302,602 L 302,603 L 302,604 L 302,604 L 301,605 L 301,606 L 301,607 L 301,608 L 301,609 L 301,610 L 301,611 L 301,612 L 301,613 L 301,614 L 302,614 L 302,615 L 302,616 L 302,617 L 303,617 L 303,618 L 304,618 L 305,618 L 305,619 L 306,619 L 307,619 L 307,619 Z" fill="black" stroke="none" /><path d="M 721,596 L 722,595 L 723,595 L 724,595 L 725,595 L 725,595 L 726,594 L 727,594 L 728,594 L 728,594 L 729,593 L 730,593 L 730,593 L 731,592 L 732,592 L 732,592 L 733,591 L 734,591 L 734,591 L 735,590 L 736,590 L 736,590 L 737,589 L 737,589 L 738,588 L 739,588 L 739,588 L 740,587 L 740,587 L 741,586 L 741,586 L 742,585 L 742,585 L 743,584 L 743,584 L 744,583 L 744,583 L 745,582 L 745,582 L 746,581 L 746,581 L 747,580 L 747,580 L 747,579 L 748,578 L 748,578 L 748,577 L 749,576 L 749,576 L 749,575 L 749,574 L 749,573 L 749,572 L 749,571 L 749,570 L 749,569 L 748,569 L 748,568 L 747,568 L 747,567 L 746,567 L 745,567 L 744,567 L 743,567 L 742,567 L 741,568 L 741,568 L 740,568 L 739,569 L 739,569 L 738,569 L 737,570 L 737,570 L 736,571 L 736,571 L 735,572 L 735,572 L 734,572 L 733,573 L 733,573 L 732,574 L 732,574 L 731,575 L 731,576 L 731,576 L 730,577 L 730,577 L 729,578 L 729,578 L 728,579 L 728,580 L 728,580 L 727,581 L 727,581 L 726,582 L 726,583 L 726,583 L 725,584 L 725,584 L 724,585 L 724,586 L 724,586 L 723,587 L 723,588 L 723,588 L 722,589 L 722,590 L 722,590 L 721,591 L 721,592 L 721,592 L 720,593 L 720,594 L 720,594 L 719,595 L 719,596 L 720,596 L 721,596 L 721,596 Z" fill="black" stroke="none" /><path d="M 135,607 L 135,606 L 135,605 L 135,604 L 135,603 L 135,602 L 135,601 L 135,600 L 134,600 L 134,599 L 134,598 L 134,597 L 134,596 L 133,596 L 133,595 L 133,594 L 133,593 L 133,592 L 133,591 L 132,591 L 132,590 L 132,589 L 132,588 L 131,588 L 131,587 L 131,586 L 131,585 L 131,584 L 130,584 L 130,583 L 130,582 L 130,581 L 130,580 L 129,581 L 129,581 L 128,582 L 128,583 L 128,583 L 127,584 L 127,584 L 126,585 L 126,586 L 126,586 L 125,587 L 125,587 L 124,588 L 124,588 L 123,589 L 123,590 L 123,590 L 122,591 L 122,591 L 121,592 L 121,592 L 120,593 L 120,593 L 119,594 L 119,595 L 119,595 L 118,596 L 118,596 L 117,597 L 118,597 L 118,598 L 119,598 L 119,599 L 120,599 L 120,600 L 121,600 L 121,601 L 122,601 L 122,602 L 123,602 L 123,603 L 124,603 L 125,603 L 125,604 L 126,604 L 126,605 L 127,605 L 128,605 L 128,606 L 129,606 L 130,606 L 131,606 L 131,607 L 132,607 L 133,607 L 134,607 L 135,607 L 135,607 Z" fill="black" stroke="none" /><path d="M 597,607 L 597,606 L 597,605 L 596,605 L 596,604 L 596,603 L 596,602 L 596,601 L 596,600 L 596,599 L 596,598 L 595,598 L 595,597 L 595,596 L 595,595 L 595,594 L 594,594 L 594,593 L 594,592 L 594,591 L 594,590 L 593,590 L 593,589 L 593,588 L 593,587 L 593,586 L 592,586 L 592,585 L 592,584 L 592,583 L 592,582 L 591,582 L 591,581 L 590,582 L 590,582 L 589,583 L 589,584 L 589,584 L 588,585 L 588,585 L 587,586 L 587,586 L 586,587 L 586,588 L 586,588 L 585,589 L 585,589 L 584,590 L 584,591 L 584,591 L 583,592 L 583,592 L 582,593 L 582,593 L 581,594 L 581,594 L 580,595 L 580,595 L 579,596 L 579,597 L 580,597 L 580,598 L 581,598 L 581,599 L 582,599 L 582,600 L 583,600 L 583,601 L 584,601 L 584,602 L 585,602 L 585,603 L 586,603 L 586,604 L 587,604 L 588,604 L 588,605 L 589,605 L 590,605 L 590,606 L 591,606 L 592,606 L 593,606 L 593,607 L 594,607 L 595,607 L 596,607 L 597,607 L 597,607 Z" fill="black" stroke="none" /><path d="M 125,622 L 126,621 L 127,621 L 128,621 L 128,621 L 129,620 L 129,620 L 130,619 L 131,619 L 131,619 L 131,618 L 132,617 L 132,617 L 133,616 L 133,616 L 134,615 L 134,615 L 134,614 L 133,614 L 132,614 L 132,613 L 131,613 L 130,613 L 129,613 L 129,612 L 128,612 L 127,612 L 127,611 L 126,611 L 125,611 L 125,610 L 124,610 L 123,610 L 123,609 L 122,609 L 121,609 L 121,608 L 120,608 L 120,607 L 119,607 L 118,607 L 118,606 L 117,606 L 117,605 L 116,605 L 116,604 L 115,604 L 115,603 L 114,603 L 114,602 L 113,602 L 112,603 L 112,604 L 112,605 L 112,605 L 111,606 L 111,607 L 111,608 L 111,609 L 111,610 L 112,610 L 112,611 L 112,612 L 112,613 L 112,614 L 113,614 L 113,615 L 113,616 L 114,616 L 114,617 L 115,617 L 115,618 L 115,619 L 116,619 L 116,620 L 117,620 L 118,620 L 118,621 L 119,621 L 120,621 L 120,622 L 121,622 L 122,622 L 123,622 L 124,622 L 125,622 L 125,622 Z" fill="black" stroke="none" /><path d="M 586,622 L 587,621 L 588,621 L 589,621 L 589,621 L 590,620 L 591,620 L 591,620 L 592,619 L 592,619 L 593,618 L 593,618 L 594,617 L 594,617 L 594,616 L 595,615 L 595,615 L 595,614 L 594,614 L 594,613 L 593,613 L 592,613 L 591,613 L 591,612 L 590,612 L 589,612 L 589,611 L 588,611 L 587,611 L 586,611 L 586,610 L 585,610 L 585,609 L 584,609 L 583,609 L 583,608 L 582,608 L 581,608 L 581,607 L 580,607 L 580,606 L 579,606 L 579,605 L 578,605 L 578,604 L 577,604 L 577,603 L 576,603 L 576,602 L 575,602 L 574,603 L 574,604 L 574,604 L 573,605 L 573,606 L 573,607 L 573,608 L 573,609 L 573,610 L 573,611 L 574,611 L 574,612 L 574,613 L 574,614 L 575,614 L 575,615 L 575,616 L 576,616 L 576,617 L 577,617 L 577,618 L 577,619 L 578,619 L 578,620 L 579,620 L 580,620 L 580,621 L 581,621 L 582,621 L 582,622 L 583,622 L 584,622 L 585,622 L 586,622 L 586,622 Z" fill="black" stroke="none" /></svg>